<svg width="46" height="42" viewBox="0 0 46 42" fill="none" xmlns="http://www.w3.org/2000/svg">
<path fill-rule="evenodd" clip-rule="evenodd" d="M13.9365 2.44166C14.1688 1.8225 14.5845 1.28895 15.1281 0.912262C15.6716 0.53557 16.3171 0.333662 16.9785 0.333496H29.0186C29.6803 0.333221 30.3263 0.534924 30.8703 0.911646C31.4143 1.28837 31.8303 1.82216 32.0628 2.44166L45.0628 37.1083C45.2474 37.6002 45.31 38.1294 45.2452 38.6507C45.1805 39.172 44.9903 39.6699 44.6911 40.1016C44.3918 40.5333 43.9924 40.8861 43.5269 41.1297C43.0615 41.3733 42.5439 41.5004 42.0186 41.5002H34.3118C33.6505 41.5 33.005 41.2981 32.4614 40.9214C31.9178 40.5447 31.5021 40.0112 31.2698 39.392L22.9996 17.3375L18.8136 28.5002H23.0711C23.7328 28.4999 24.3788 28.7016 24.9228 29.0783C25.4668 29.455 25.8828 29.9888 26.1153 30.6083L28.5528 37.1083C28.7374 37.6002 28.8 38.1294 28.7352 38.6507C28.6705 39.172 28.4803 39.6699 28.1811 40.1016C27.8818 40.5333 27.4824 40.8861 27.0169 41.1297C26.5515 41.3733 26.0339 41.5004 25.5086 41.5002H3.98063C3.4555 41.5 2.93822 41.3727 2.47307 41.1289C2.00792 40.8852 1.60876 40.5324 1.30975 40.1007C1.01074 39.669 0.820787 39.1713 0.756156 38.6502C0.691524 38.129 0.754136 37.6 0.938632 37.1083L13.9386 2.44166H13.9365ZM17.7281 4.66683L5.54497 37.1668H23.9486L22.3236 32.8335H15.6871C15.3371 32.8334 14.9924 32.7484 14.6824 32.586C14.3723 32.4236 14.1063 32.1884 13.907 31.9007C13.7076 31.613 13.581 31.2813 13.5378 30.934C13.4947 30.5867 13.5363 30.2341 13.6591 29.9063L20.9716 10.4063C21.1268 9.99383 21.404 9.63844 21.7663 9.38758C22.1287 9.13672 22.5589 9.00233 22.9996 9.00233C23.4403 9.00233 23.8706 9.13672 24.2329 9.38758C24.5953 9.63844 24.8725 9.99383 25.0276 10.4063L35.0636 37.1668H40.4565L28.269 4.66683H17.7303H17.7281Z" fill="#EEECEA"/>
</svg>
