<svg width="18" height="12" viewBox="0 0 18 12" fill="none" xmlns="http://www.w3.org/2000/svg">
<path d="M3.75033 10.2111C4.23226 10.2208 4.7132 10.1632 5.17923 10.04C5.59825 9.93661 5.97736 9.71156 6.26882 9.39314L6.27813 9.38296L6.28687 9.37229C6.55482 9.04501 6.6973 8.63307 6.689 8.21045C6.69584 7.818 6.58795 7.432 6.37843 7.09988L6.37856 7.09979L6.37157 7.08931C6.12237 6.7155 5.70228 6.48928 5.23045 6.36175L5.23047 6.36167L5.22167 6.35947C5.0395 6.31376 4.85452 6.28013 4.66792 6.25879L4.66793 6.25875L4.66177 6.25812C4.42714 6.23422 4.19145 6.22224 3.9556 6.22221H3.95555H2.41111H1.91111V6.72221V9.67777V10.1508L2.38337 10.177L2.38881 10.1773C2.58551 10.1882 2.79718 10.2 3.02222 10.2C3.11343 10.2 3.20971 10.2022 3.32133 10.2048L3.34823 10.2054C3.46805 10.2082 3.60179 10.211 3.75033 10.2111ZM3.75033 10.2111C3.74853 10.2111 3.74674 10.211 3.74494 10.211L3.75555 9.7111M3.75033 10.2111C3.75207 10.2111 3.75381 10.2111 3.75555 10.2111V9.7111M3.75555 9.7111C3.5998 9.7111 3.4602 9.70787 3.33153 9.70489C3.22153 9.70235 3.11951 9.69999 3.02222 9.69999C2.81111 9.69999 2.61111 9.68888 2.41111 9.67777M3.75555 9.7111C4.19403 9.7204 4.63164 9.66804 5.05555 9.55554C5.38034 9.4762 5.67425 9.30217 5.89999 9.05555L2.41111 9.67777M2.41111 9.67777V7.22221V6.72221V9.67777ZM6.86467 5.84116C7.08552 5.95896 7.29247 6.10113 7.48166 6.26501C7.70995 6.46726 7.89476 6.71379 8.02488 6.98965C8.19286 7.35098 8.27563 7.74606 8.26678 8.14445L8.26658 8.15353L8.26671 8.16263C8.27481 8.73458 8.09877 9.29394 7.76468 9.75813C7.38218 10.2614 6.86406 10.6451 6.27108 10.8643L6.26428 10.8668L6.25755 10.8696C5.58549 11.1404 4.76273 11.2889 3.76666 11.2889H2.58889C2.20874 11.2889 1.87383 11.2888 1.5734 11.2781C1.40653 11.2721 1.26818 11.2695 1.14271 11.2671C1.00563 11.2645 0.883901 11.2621 0.757115 11.2561C0.666427 11.2518 0.580585 11.2491 0.5 11.2474V0.54031C0.652562 0.536151 0.834039 0.533334 1.04444 0.533334C1.43572 0.533334 1.84524 0.523948 2.28301 0.513915C2.32553 0.512941 2.3683 0.511961 2.41136 0.510982C2.89381 0.500018 3.3329 0.5 3.74444 0.5C4.69115 0.5 5.40432 0.608485 5.90617 0.791855L5.91293 0.794324L5.91976 0.796597C6.34683 0.938852 6.73636 1.17545 7.05946 1.48881C7.28882 1.7204 7.45909 2.00381 7.55586 2.3151L7.55585 2.3151L7.55699 2.31867C7.64351 2.58978 7.68799 2.87255 7.68888 3.15712L7.68879 3.15712L7.689 3.16665C7.6955 3.45917 7.64595 3.75024 7.54305 4.02414L7.54297 4.02411L7.53986 4.03288C7.46213 4.25206 7.3455 4.45542 7.19556 4.63318L7.18881 4.6412L7.18239 4.64948C7.08165 4.77963 6.96035 4.89246 6.82327 4.98355L6.12578 5.44703L6.86467 5.84116ZM0.5 0.233333C0.5 0.228119 0.500389 0.228985 0.5 0.23467V0.233333ZM2.41111 1.63333H1.91111V2.13333V4.62222V5.12222H2.41111H3.62222C3.9341 5.12222 4.23645 5.13296 4.54882 5.14412L4.55756 5.14443L4.5663 5.14444C4.75717 5.14458 4.94755 5.16362 5.13467 5.20128L5.37551 5.24975L5.56105 5.08873C5.76092 4.91527 5.92922 4.70849 6.0585 4.47757L6.06614 4.46392L6.07292 4.44982C6.21097 4.16243 6.28107 3.8472 6.2779 3.52852C6.29128 3.141 6.17679 2.75969 5.95187 2.4435L5.94175 2.42928L5.93068 2.41581C5.69591 2.13024 5.3846 1.91751 5.03324 1.80256L5.03326 1.80249L5.02538 1.80006C4.61249 1.67248 4.18171 1.61243 3.7497 1.62222H3.23333L3.22013 1.62222C3.0887 1.62221 2.94226 1.6222 2.80816 1.63194C2.70602 1.62636 2.58615 1.62941 2.49857 1.63165C2.46296 1.63256 2.43268 1.63333 2.41111 1.63333Z" fill="#212121" stroke="#212121"/>
<path d="M11.8663 7.4666H12.4333H15.9555C16.0941 7.4666 16.2282 7.46393 16.3633 7.46115L16.3777 7.46085C16.5065 7.45819 16.6375 7.45548 16.7666 7.45548H16.7715V7.45551C16.9663 7.4574 17.1611 7.44733 17.3547 7.42534L17.3672 7.42391L17.3799 7.42312C17.4088 7.42131 17.4383 7.41933 17.4675 7.41731C17.4717 7.37021 17.4755 7.31899 17.4784 7.26254C17.4895 7.05317 17.5 6.83064 17.5 6.57771V6.57615C17.5012 6.16865 17.4381 5.7635 17.313 5.37569L17.3123 5.37355L17.3123 5.37355C17.1846 4.97157 16.9866 4.59543 16.7276 4.26258L16.7261 4.2606L16.7261 4.2606C16.4694 3.92742 16.1347 3.66264 15.7513 3.48967C15.2775 3.27945 14.7631 3.17666 14.2449 3.18869L14.2349 3.18892L14.225 3.18876C13.6617 3.17939 13.1035 3.29597 12.5911 3.52995C12.139 3.75018 11.7392 4.06457 11.4185 4.45204L11.4178 4.45285C11.0858 4.85237 10.834 5.31224 10.6764 5.80722L10.6759 5.80893L10.6758 5.80893C10.3521 6.813 10.338 7.89125 10.6353 8.90347L10.6358 8.90539L10.6358 8.90539C10.7709 9.37231 10.9998 9.8068 11.3084 10.1823L11.8663 7.4666ZM11.8663 7.4666L11.9372 8.02915C11.9891 8.44031 12.1328 8.83453 12.3579 9.18254L12.3579 9.18254L12.3596 9.18519C12.6117 9.56964 12.9749 9.86817 13.4009 10.041L13.5889 9.57771M11.8663 7.4666L15.0111 9.83326M12.9384 7.9666H15.9555C16.1044 7.9666 16.2474 7.96365 16.386 7.96078C16.5163 7.95809 16.6428 7.95548 16.7666 7.95548L12.9384 7.9666ZM12.9384 7.9666C12.935 7.94582 12.932 7.92497 12.9294 7.90405L12.4333 7.9666M12.9384 7.9666H12.4333M12.4333 7.9666V8.4666H12.5554M12.4333 7.9666L12.5554 8.4666M12.5554 8.4666C12.6128 8.62198 12.6872 8.77107 12.7777 8.91104C12.9741 9.21051 13.257 9.44306 13.5889 9.57771M12.5554 8.4666L11.3085 10.1825C11.6346 10.579 12.0503 10.8924 12.5213 11.0968L12.5245 11.0982C13.023 11.3187 13.6614 11.4444 14.4555 11.4444H14.4662L14.4662 11.4445C14.9591 11.455 15.4518 11.4135 15.9359 11.3206C16.2321 11.2598 16.5215 11.1702 16.8 11.0532V10.0978C16.6209 10.1496 16.4391 10.1922 16.2553 10.2253L16.2529 10.2258L16.2529 10.2258C15.8456 10.2971 15.4329 10.3331 15.0194 10.3333C14.4646 10.3511 13.9122 10.2513 13.3987 10.0401L13.5889 9.57771M13.5889 9.57771C14.0394 9.76295 14.5242 9.85007 15.0111 9.83326M15.0111 9.83326C15.3984 9.83356 15.7851 9.8001 16.1666 9.73326L15.0111 9.83326ZM11.855 6.72215L11.9386 6.14992C11.9843 5.83627 12.085 5.53317 12.236 5.2545C12.4189 4.90257 12.6993 4.61073 13.0437 4.41393C13.3836 4.21971 13.7715 4.12621 14.1623 4.14408C14.5824 4.13628 14.9942 4.26295 15.3375 4.50589C15.6856 4.75223 15.9443 5.1048 16.075 5.51065C16.1362 5.6937 16.1672 5.88551 16.1666 6.07853M11.855 6.72215L15.6666 6.07771M11.855 6.72215H12.4333H14.7777L14.8047 6.72215C15.061 6.72217 15.2819 6.72218 15.4358 6.71065M11.855 6.72215L12.9402 6.22215M16.1666 6.07853C16.1666 6.07879 16.1666 6.07906 16.1666 6.07932L15.6666 6.07771M16.1666 6.07853V6.07771H15.6666M16.1666 6.07853V6.18882V6.61583L15.7449 6.68266C15.6426 6.69887 15.5393 6.70822 15.4358 6.71065M15.6666 6.07771V6.18882C15.5821 6.20222 15.4967 6.20964 15.4111 6.21104M15.4358 6.71065C15.4415 6.71022 15.4471 6.70977 15.4526 6.70931L15.4111 6.21104M15.4358 6.71065C15.4303 6.71078 15.4247 6.71089 15.4192 6.71098L15.4111 6.21104M15.4111 6.21104C15.2777 6.22215 15.0666 6.22215 14.7778 6.22215H14.7777H12.9402M12.4333 6.22215C12.4584 6.05047 12.5036 5.88265 12.568 5.72215H12.4333V6.22215ZM12.4333 6.22215H12.9402M12.4333 6.22215L12.9281 6.29438C12.9316 6.2702 12.9356 6.24612 12.9402 6.22215" fill="#212121" stroke="#212121"/>
</svg>
