<svg width="29" height="29" viewBox="0 0 29 29" fill="none" xmlns="http://www.w3.org/2000/svg">
<path d="M4.31641 21.289V7.71094H9.4082C10.3085 7.71094 11.1719 8.06857 11.8085 8.70517C12.4451 9.34177 12.8027 10.2052 12.8027 11.1055C12.8027 12.0057 12.4451 12.8692 11.8085 13.5058C11.1719 14.1424 10.3085 14.5 9.4082 14.5C10.3085 14.5 11.1719 14.8576 11.8085 15.4942C12.4451 16.1308 12.8027 16.9942 12.8027 17.8945C12.8027 18.7948 12.4451 19.6582 11.8085 20.2948C11.1719 20.9314 10.3085 21.289 9.4082 21.289H4.31641Z" stroke="black" stroke-width="2" stroke-linecap="round" stroke-linejoin="round"/>
<path d="M4.31641 14.5H9.4082" stroke="black" stroke-width="2" stroke-linecap="round" stroke-linejoin="round"/>
<path d="M16.7631 15.6314H24.6836C24.6836 14.5811 24.2664 13.5738 23.5237 12.8311C22.781 12.0884 21.7737 11.6711 20.7233 11.6711C19.673 11.6711 18.6657 12.0884 17.923 12.8311C17.1803 13.5738 16.7631 14.5811 16.7631 15.6314V17.8944C16.8798 18.7416 17.2676 19.5282 17.8684 20.1366C18.4693 20.7451 19.2509 21.1427 20.0965 21.27C20.9421 21.3974 21.8062 21.2476 22.5596 20.8431C23.313 20.4386 23.9152 19.8011 24.2763 19.026" stroke="black" stroke-width="2" stroke-linecap="round" stroke-linejoin="round"/>
<path d="M19.026 7.71094H22.4205" stroke="black" stroke-width="2" stroke-linecap="round" stroke-linejoin="round"/>
</svg>
