<svg width="42" height="41" viewBox="0 0 42 41" fill="none" xmlns="http://www.w3.org/2000/svg">
<path d="M15.0035 31.921H26.1614V37.5H15.0035V31.921Z" fill="#F6F6F6"/>
<path fill-rule="evenodd" clip-rule="evenodd" d="M24.1614 33.921H17.0035V35.5H24.1614V33.921ZM15.0035 31.921V37.5H26.1614V31.921H15.0035Z" fill="#212121"/>
<path fill-rule="evenodd" clip-rule="evenodd" d="M20.5826 15.5242L28.5754 29.2261L27.4076 29.6154C26.1135 30.0467 25.3544 30.553 24.9256 31.0247C24.5148 31.4765 24.372 31.9329 24.372 32.386H22.372C22.372 31.4444 22.6942 30.506 23.4457 29.6793C23.979 29.0926 24.7064 28.5857 25.6387 28.1611L20.5826 19.4934L15.5264 28.1611C16.4587 28.5857 17.1861 29.0926 17.7194 29.6793C18.4709 30.506 18.7931 31.4444 18.7931 32.386H16.7931C16.7931 31.9329 16.6503 31.4765 16.2395 31.0247C15.8107 30.553 15.0516 30.0467 13.7576 29.6154L12.5898 29.2261L20.5826 15.5242Z" fill="#212121"/>
<path fill-rule="evenodd" clip-rule="evenodd" d="M19.5825 24.9474V17.9738H21.5825V24.9474H19.5825Z" fill="#212121"/>
<path fill-rule="evenodd" clip-rule="evenodd" d="M18.5475 26C18.5475 24.8954 19.443 24 20.5475 24C21.6521 24 22.5475 24.8954 22.5475 26C22.5475 27.1046 21.6521 28 20.5475 28C19.443 28 18.5475 27.1046 18.5475 26Z" fill="#212121"/>
<path fill-rule="evenodd" clip-rule="evenodd" d="M5.75924 24.6178C5.74009 24.7275 5.72214 24.8373 5.70538 24.9474H7.64617C7.81496 23.9809 8.0897 23.0336 8.46694 22.1228C9.1408 20.496 10.1285 19.0178 11.3736 17.7727C12.6188 16.5275 14.0969 15.5398 15.7238 14.866C17.3506 14.1921 19.0943 13.8453 20.8551 13.8453C22.616 13.8453 24.3597 14.1921 25.9865 14.866C27.6133 15.5398 29.0915 16.5275 30.3367 17.7727C31.5818 19.0178 32.5695 20.496 33.2433 22.1228C33.6206 23.0336 33.8953 23.9809 34.0641 24.9474H36.0049C35.9881 24.8373 35.9702 24.7275 35.951 24.6178C35.8526 24.0544 35.7227 23.4967 35.5619 22.9474C35.4073 22.4197 35.2242 21.8997 35.013 21.3898C34.2429 19.5306 33.1141 17.8412 31.6911 16.4182C30.2681 14.9952 28.5788 13.8664 26.7195 13.0963C24.8603 12.3262 22.8676 11.9298 20.8551 11.9298C18.8427 11.9298 16.85 12.3262 14.9908 13.0963C13.1315 13.8664 11.4422 14.9952 10.0192 16.4182C8.59617 17.8412 7.46738 19.5306 6.69726 21.3898C6.48604 21.8997 6.30294 22.4197 6.14841 22.9474C5.98753 23.4967 5.85763 24.0544 5.75924 24.6178Z" fill="#212121"/>
<path fill-rule="evenodd" clip-rule="evenodd" d="M36.3896 13.8596H5.70538V11.8596H36.3896V13.8596Z" fill="#212121"/>
<path d="M5.70538 24.9474H8.49486V27.7369H5.70538V24.9474Z" fill="#F6F6F6"/>
<path fill-rule="evenodd" clip-rule="evenodd" d="M4.70538 23.9474H9.49486V28.7369H4.70538V23.9474ZM6.70538 25.9474V26.7369H7.49486V25.9474H6.70538Z" fill="#212121"/>
<path d="M33.6001 24.9474H36.3896V27.7369H33.6001V24.9474Z" fill="#F6F6F6"/>
<path fill-rule="evenodd" clip-rule="evenodd" d="M32.6001 23.9474H37.3896V28.7369H32.6001V23.9474ZM34.6001 25.9474V26.7369H35.3896V25.9474H34.6001Z" fill="#212121"/>
<path d="M19.6527 11H22.4422V13.7895H19.6527V11Z" fill="#F6F6F6"/>
<path fill-rule="evenodd" clip-rule="evenodd" d="M18.6527 10H23.4422V14.7895H18.6527V10ZM20.6527 12V12.7895H21.4422V12H20.6527Z" fill="#212121"/>
<path d="M6.63519 12.8596C6.63519 13.3732 7.05149 13.7895 7.56502 13.7895C8.07855 13.7895 8.49484 13.3732 8.49484 12.8596C8.49484 12.3461 8.07855 11.9298 7.56502 11.9298C7.05149 11.9298 6.63519 12.3461 6.63519 12.8596Z" fill="#F6F6F6"/>
<path fill-rule="evenodd" clip-rule="evenodd" d="M7.56502 11.7895C8.15606 11.7895 8.63519 12.2686 8.63519 12.8596C8.63519 13.4507 8.15606 13.9298 7.56502 13.9298C6.97398 13.9298 6.49484 13.4507 6.49484 12.8596C6.49484 12.2686 6.97398 11.7895 7.56502 11.7895ZM4.63519 12.8596C4.63519 14.4777 5.94692 15.7895 7.56502 15.7895C9.18312 15.7895 10.4948 14.4777 10.4948 12.8596C10.4948 11.2415 9.18312 9.92981 7.56502 9.92981C5.94692 9.92981 4.63519 11.2415 4.63519 12.8596Z" fill="#212121"/>
<path d="M33.6001 12.8596C33.6001 13.3732 34.0164 13.7895 34.5299 13.7895C35.0435 13.7895 35.4597 13.3732 35.4597 12.8596C35.4597 12.3461 35.0435 11.9298 34.5299 11.9298C34.0164 11.9298 33.6001 12.3461 33.6001 12.8596Z" fill="#F6F6F6"/>
<path fill-rule="evenodd" clip-rule="evenodd" d="M34.5299 11.7895C35.121 11.7895 35.6001 12.2686 35.6001 12.8596C35.6001 13.4507 35.121 13.9298 34.5299 13.9298C33.9389 13.9298 33.4597 13.4507 33.4597 12.8596C33.4597 12.2686 33.9389 11.7895 34.5299 11.7895ZM31.6001 12.8596C31.6001 14.4777 32.9118 15.7895 34.5299 15.7895C36.148 15.7895 37.4597 14.4777 37.4597 12.8596C37.4597 11.2415 36.148 9.92981 34.5299 9.92981C32.9118 9.92981 31.6001 11.2415 31.6001 12.8596Z" fill="#212121"/>
<path fill-rule="evenodd" clip-rule="evenodd" d="M40.5475 9H1.54755V7H40.5475V9Z" fill="#212121"/>
<path fill-rule="evenodd" clip-rule="evenodd" d="M39.5475 2H2.54755V39H39.5475V2ZM0.547546 0V41H41.5475V0H0.547546Z" fill="#212121"/>
<path d="M5.54755 4.5C5.54755 4.77614 5.32369 5 5.04755 5C4.7714 5 4.54755 4.77614 4.54755 4.5C4.54755 4.22386 4.7714 4 5.04755 4C5.32369 4 5.54755 4.22386 5.54755 4.5Z" fill="#212121"/>
<path fill-rule="evenodd" clip-rule="evenodd" d="M5.04755 5C5.32369 5 5.54755 4.77614 5.54755 4.5C5.54755 4.22386 5.32369 4 5.04755 4C4.7714 4 4.54755 4.22386 4.54755 4.5C4.54755 4.77614 4.7714 5 5.04755 5ZM3.54755 4.5C3.54755 3.67157 4.21912 3 5.04755 3C5.87597 3 6.54755 3.67157 6.54755 4.5C6.54755 5.32843 5.87597 6 5.04755 6C4.21912 6 3.54755 5.32843 3.54755 4.5Z" fill="#212121"/>
<path d="M9.54755 4.5C9.54755 4.77614 9.32369 5 9.04755 5C8.7714 5 8.54755 4.77614 8.54755 4.5C8.54755 4.22386 8.7714 4 9.04755 4C9.32369 4 9.54755 4.22386 9.54755 4.5Z" fill="#212121"/>
<path fill-rule="evenodd" clip-rule="evenodd" d="M9.04755 5C9.32369 5 9.54755 4.77614 9.54755 4.5C9.54755 4.22386 9.32369 4 9.04755 4C8.7714 4 8.54755 4.22386 8.54755 4.5C8.54755 4.77614 8.7714 5 9.04755 5ZM7.54755 4.5C7.54755 3.67157 8.21912 3 9.04755 3C9.87597 3 10.5475 3.67157 10.5475 4.5C10.5475 5.32843 9.87597 6 9.04755 6C8.21912 6 7.54755 5.32843 7.54755 4.5Z" fill="#212121"/>
<path d="M13.5475 4.5C13.5475 4.77614 13.3237 5 13.0475 5C12.7714 5 12.5475 4.77614 12.5475 4.5C12.5475 4.22386 12.7714 4 13.0475 4C13.3237 4 13.5475 4.22386 13.5475 4.5Z" fill="#212121"/>
<path fill-rule="evenodd" clip-rule="evenodd" d="M13.0475 5C13.3237 5 13.5475 4.77614 13.5475 4.5C13.5475 4.22386 13.3237 4 13.0475 4C12.7714 4 12.5475 4.22386 12.5475 4.5C12.5475 4.77614 12.7714 5 13.0475 5ZM11.5475 4.5C11.5475 3.67157 12.2191 3 13.0475 3C13.876 3 14.5475 3.67157 14.5475 4.5C14.5475 5.32843 13.876 6 13.0475 6C12.2191 6 11.5475 5.32843 11.5475 4.5Z" fill="#212121"/>
</svg>
