<svg width="54" height="51" viewBox="0 0 54 51" fill="none" xmlns="http://www.w3.org/2000/svg">
<path fill-rule="evenodd" clip-rule="evenodd" d="M15.3789 35.1144L15.3789 47.222C15.3789 48.76 16.6257 50.0068 18.1637 50.0068L35.1143 50.0068C36.6523 50.0068 37.8991 48.76 37.8991 47.222V35.1144H32.3296V44.4372L20.9484 44.4373V35.1144H15.3789Z" fill="#EEECEA"/>
<path fill-rule="evenodd" clip-rule="evenodd" d="M0.849609 6.05638C0.849609 3.18103 3.18054 0.850098 6.05589 0.850098H49.6433C52.5187 0.850098 54.8496 3.18103 54.8496 6.05638V32.6931C54.8496 35.5685 52.5187 37.8994 49.6433 37.8994H6.05589C3.18054 37.8994 0.849609 35.5685 0.849609 32.6931V6.05638ZM6.41912 6.4196V32.3299H49.2801V6.4196H6.41912Z" fill="#EEECEA"/>
<path fill-rule="evenodd" clip-rule="evenodd" d="M8.1142 47.2223C8.1142 45.6843 9.36097 44.4375 10.899 44.4375H42.3788C43.9167 44.4375 45.1635 45.6843 45.1635 47.2223C45.1635 48.7602 43.9167 50.007 42.3788 50.007H10.899C9.36097 50.007 8.1142 48.7602 8.1142 47.2223Z" fill="#EEECEA"/>
<path fill-rule="evenodd" clip-rule="evenodd" d="M29.9082 13.321C29.9082 11.783 31.155 10.5363 32.693 10.5363H42.3791C43.917 10.5363 45.1638 11.783 45.1638 13.321C45.1638 14.859 43.917 16.1058 42.3791 16.1058H32.693C31.155 16.1058 29.9082 14.859 29.9082 13.321Z" fill="#EEECEA"/>
<path fill-rule="evenodd" clip-rule="evenodd" d="M29.9082 25.4286C29.9082 23.8906 31.155 22.6438 32.693 22.6438H42.3791C43.917 22.6438 45.1638 23.8906 45.1638 25.4286C45.1638 26.9665 43.917 28.2133 42.3791 28.2133H32.693C31.155 28.2133 29.9082 26.9665 29.9082 25.4286Z" fill="#EEECEA"/>
<path fill-rule="evenodd" clip-rule="evenodd" d="M10.5361 13.321C10.5361 11.783 11.7829 10.5363 13.3209 10.5363H23.007C24.545 10.5363 25.7917 11.783 25.7917 13.321V25.4286C25.7917 26.9666 24.545 28.2134 23.007 28.2134H13.3209C11.7829 28.2134 10.5361 26.9666 10.5361 25.4286V13.321ZM16.1056 16.1058V22.6439H20.2222V16.1058H16.1056Z" fill="#EEECEA"/>
</svg>
