<svg width="42" height="41" viewBox="0 0 42 41" fill="none" xmlns="http://www.w3.org/2000/svg">
<rect x="1.54758" y="5.15869" width="39" height="26.4375" stroke="#212121" stroke-width="2"/>
<path d="M20.5476 34.1587L20.5476 39.1587" stroke="#212121" stroke-width="2"/>
<path d="M11.5476 39.1587L29.5476 39.1587" stroke="#212121" stroke-width="2"/>
<path d="M32.5476 3.15869L31.5476 7.15869" stroke="#F6F6F6" stroke-width="2.5"/>
<path d="M30.2922 2.09496C28.3352 0.998844 20.9822 11.4495 17.5504 16.8118L24.4001 20.6482C27.1796 14.9205 32.2493 3.19108 30.2922 2.09496Z" fill="#F6F6F6" stroke="#212121" stroke-width="2"/>
<path d="M19.3981 15.167C17.8477 15.2347 16.7695 15.9002 16.0677 16.9045C15.3433 17.941 14.9725 19.4136 15.0467 21.1151C15.0873 22.0462 14.7176 22.918 14.1827 23.5665L11.7691 26.4924C12.8558 26.4752 13.9475 26.5088 15.0162 26.5477C15.1795 26.5536 15.3422 26.5596 15.5043 26.5657C17.0205 26.622 18.4842 26.6765 19.8974 26.6148C23.0586 26.4769 25.5095 23.8025 25.3716 20.6412C25.2337 17.48 22.5593 15.0291 19.3981 15.167Z" fill="#F6F6F6" stroke="#212121" stroke-width="2"/>
<path d="M6.54758 26.6587H35.5476" stroke="#212121" stroke-width="2"/>
<path d="M25.0476 3.15869L20.5476 8.65869" stroke="#F6F6F6" stroke-width="2"/>
</svg>
