<svg width="31" height="45" viewBox="0 0 31 45" fill="none" xmlns="http://www.w3.org/2000/svg">
<path fill-rule="evenodd" clip-rule="evenodd" d="M13.2917 0.41687H8.875C7.08072 0.416759 5.32894 0.963095 3.8528 1.98318C2.37666 3.00326 1.24615 4.44871 0.611721 6.12717C-0.0227067 7.80563 -0.130968 9.63751 0.301343 11.379C0.733654 13.1205 1.68604 14.6891 3.03175 15.876C2.09082 16.7041 1.33738 17.7234 0.821755 18.8659C0.306129 20.0084 0.0401799 21.2478 0.041667 22.5013C0.0401799 23.7548 0.306129 24.9941 0.821755 26.1366C1.33738 27.2791 2.09082 28.2985 3.03175 29.1266C1.92482 30.103 1.0802 31.3413 0.575058 32.7282C0.0699197 34.1152 -0.079633 35.6066 0.140065 37.0663C0.359763 38.5259 0.941707 39.9073 1.83273 41.0841C2.72375 42.2608 3.89544 43.1956 5.24075 43.8029C6.58605 44.4102 8.06209 44.6707 9.534 44.5606C11.0059 44.4505 12.4268 43.9732 13.6667 43.1725C14.9067 42.3718 15.9263 41.2731 16.6323 39.9768C17.3383 38.6805 17.7083 37.228 17.7083 35.7519V30.1535C19.6059 31.2518 21.844 31.6052 23.9875 31.1449C26.1311 30.6846 28.0269 29.4436 29.3063 27.6631C30.5858 25.8827 31.1574 23.69 30.9101 21.5115C30.6628 19.333 29.6142 17.3243 27.9683 15.876C29.314 14.6891 30.2663 13.1205 30.6987 11.379C31.131 9.63751 31.0227 7.80563 30.3883 6.12717C29.7539 4.44871 28.6233 3.00326 27.1472 1.98318C25.6711 0.963095 23.9193 0.416759 22.125 0.41687H13.2917ZM17.7083 4.83375V13.6675H22.125C23.2964 13.6675 24.4198 13.2022 25.2481 12.3738C26.0763 11.5455 26.5417 10.4221 26.5417 9.25063C26.5417 8.0792 26.0763 6.95575 25.2481 6.12742C24.4198 5.2991 23.2964 4.83375 22.125 4.83375H17.7083ZM13.2917 18.0844H8.875C7.70363 18.0844 6.58023 18.5497 5.75195 19.3781C4.92366 20.2064 4.45833 21.3298 4.45833 22.5013C4.45833 23.6727 4.92366 24.7962 5.75195 25.6245C6.58023 26.4528 7.70363 26.9182 8.875 26.9182H13.2917V18.0844ZM8.875 13.6675H13.2917V4.83375H8.875C7.70363 4.83375 6.58023 5.2991 5.75195 6.12742C4.92366 6.95575 4.45833 8.0792 4.45833 9.25063C4.45833 10.4221 4.92366 11.5455 5.75195 12.3738C6.58023 13.2022 7.70363 13.6675 8.875 13.6675ZM17.7083 22.5013C17.7083 23.6727 18.1737 24.7962 19.0019 25.6245C19.8302 26.4528 20.9536 26.9182 22.125 26.9182C23.2964 26.9182 24.4198 26.4528 25.2481 25.6245C26.0763 24.7962 26.5417 23.6727 26.5417 22.5013C26.5417 21.3298 26.0763 20.2064 25.2481 19.3781C24.4198 18.5497 23.2964 18.0844 22.125 18.0844C20.9536 18.0844 19.8302 18.5497 19.0019 19.3781C18.1737 20.2064 17.7083 21.3298 17.7083 22.5013ZM8.875 31.335H13.2917V35.7519C13.2917 36.6255 13.0326 37.4794 12.5473 38.2058C12.062 38.9322 11.3722 39.4983 10.5652 39.8326C9.75814 40.1669 8.8701 40.2543 8.01335 40.0839C7.1566 39.9135 6.36963 39.4928 5.75195 38.8751C5.13426 38.2574 4.71362 37.4704 4.5432 36.6136C4.37278 35.7568 4.46025 34.8687 4.79453 34.0616C5.12882 33.2546 5.69492 32.5647 6.42123 32.0794C7.14755 31.5941 8.00147 31.335 8.875 31.335Z" fill="#EEECEA"/>
</svg>
