<svg width="242" height="103" viewBox="0 0 242 103" fill="none" xmlns="http://www.w3.org/2000/svg">
<path d="M92 93.3785L149.719 93.3785" stroke="#F6F6F6" stroke-width="2" stroke-linecap="round" stroke-linejoin="round"/>
<path d="M140.018 101.653L149.499 93.3267" stroke="#F6F6F6" stroke-width="2" stroke-linecap="round" stroke-linejoin="round"/>
<path d="M140.018 85L149.499 93.3266" stroke="#F6F6F6" stroke-width="2" stroke-linecap="round" stroke-linejoin="round"/>
<path d="M10.2882 26.168C9.16819 26.168 8.16019 25.976 7.26419 25.592C6.36819 25.192 5.66419 24.632 5.15219 23.912C4.64019 23.192 4.38419 22.352 4.38419 21.392H7.31219C7.37619 22.112 7.65619 22.704 8.15219 23.168C8.66419 23.632 9.37619 23.864 10.2882 23.864C11.2322 23.864 11.9682 23.64 12.4962 23.192C13.0242 22.728 13.2882 22.136 13.2882 21.416C13.2882 20.856 13.1202 20.4 12.7842 20.048C12.4642 19.696 12.0562 19.424 11.5602 19.232C11.0802 19.04 10.4082 18.832 9.54419 18.608C8.45619 18.32 7.56819 18.032 6.88019 17.744C6.20819 17.44 5.63219 16.976 5.15219 16.352C4.67219 15.728 4.43219 14.896 4.43219 13.856C4.43219 12.896 4.67219 12.056 5.15219 11.336C5.63219 10.616 6.30419 10.064 7.16819 9.68C8.03219 9.296 9.03219 9.104 10.1682 9.104C11.7842 9.104 13.1042 9.512 14.1282 10.328C15.1682 11.128 15.7442 12.232 15.8562 13.64H12.8322C12.7842 13.032 12.4962 12.512 11.9682 12.08C11.4402 11.648 10.7442 11.432 9.88019 11.432C9.09619 11.432 8.45619 11.632 7.96019 12.032C7.46419 12.432 7.21619 13.008 7.21619 13.76C7.21619 14.272 7.36819 14.696 7.67219 15.032C7.99219 15.352 8.39219 15.608 8.87219 15.8C9.35219 15.992 10.0082 16.2 10.8402 16.424C11.9442 16.728 12.8402 17.032 13.5282 17.336C14.2322 17.64 14.8242 18.112 15.3042 18.752C15.8002 19.376 16.0482 20.216 16.0482 21.272C16.0482 22.12 15.8162 22.92 15.3522 23.672C14.9042 24.424 14.2402 25.032 13.3602 25.496C12.4962 25.944 11.4722 26.168 10.2882 26.168ZM31.3966 19.064C31.3966 19.56 31.3646 20.008 31.3006 20.408H21.1966C21.2766 21.464 21.6686 22.312 22.3726 22.952C23.0766 23.592 23.9406 23.912 24.9646 23.912C26.4366 23.912 27.4766 23.296 28.0846 22.064H31.0366C30.6366 23.28 29.9086 24.28 28.8526 25.064C27.8126 25.832 26.5166 26.216 24.9646 26.216C23.7006 26.216 22.5646 25.936 21.5566 25.376C20.5646 24.8 19.7806 24 19.2046 22.976C18.6446 21.936 18.3646 20.736 18.3646 19.376C18.3646 18.016 18.6366 16.824 19.1806 15.8C19.7406 14.76 20.5166 13.96 21.5086 13.4C22.5166 12.84 23.6686 12.56 24.9646 12.56C26.2126 12.56 27.3246 12.832 28.3006 13.376C29.2766 13.92 30.0366 14.688 30.5806 15.68C31.1246 16.656 31.3966 17.784 31.3966 19.064ZM28.5406 18.2C28.5246 17.192 28.1646 16.384 27.4606 15.776C26.7566 15.168 25.8846 14.864 24.8446 14.864C23.9006 14.864 23.0926 15.168 22.4206 15.776C21.7486 16.368 21.3486 17.176 21.2206 18.2H28.5406ZM46.2091 19.064C46.2091 19.56 46.1771 20.008 46.1131 20.408H36.0091C36.0891 21.464 36.4811 22.312 37.1851 22.952C37.8891 23.592 38.7531 23.912 39.7771 23.912C41.2491 23.912 42.2891 23.296 42.8971 22.064H45.8491C45.4491 23.28 44.7211 24.28 43.6651 25.064C42.6251 25.832 41.3291 26.216 39.7771 26.216C38.5131 26.216 37.3771 25.936 36.3691 25.376C35.3771 24.8 34.5931 24 34.0171 22.976C33.4571 21.936 33.1771 20.736 33.1771 19.376C33.1771 18.016 33.4491 16.824 33.9931 15.8C34.5531 14.76 35.3291 13.96 36.3211 13.4C37.3291 12.84 38.4811 12.56 39.7771 12.56C41.0251 12.56 42.1371 12.832 43.1131 13.376C44.0891 13.92 44.8491 14.688 45.3931 15.68C45.9371 16.656 46.2091 17.784 46.2091 19.064ZM43.3531 18.2C43.3371 17.192 42.9771 16.384 42.2731 15.776C41.5691 15.168 40.6971 14.864 39.6571 14.864C38.7131 14.864 37.9051 15.168 37.2331 15.776C36.5611 16.368 36.1611 17.176 36.0331 18.2H43.3531ZM67.2079 14.12C66.7759 13.288 66.1759 12.664 65.4079 12.248C64.6399 11.816 63.7519 11.6 62.7439 11.6C61.6399 11.6 60.6559 11.848 59.7919 12.344C58.9279 12.84 58.2479 13.544 57.7519 14.456C57.2719 15.368 57.0319 16.424 57.0319 17.624C57.0319 18.824 57.2719 19.888 57.7519 20.816C58.2479 21.728 58.9279 22.432 59.7919 22.928C60.6559 23.424 61.6399 23.672 62.7439 23.672C64.2319 23.672 65.4399 23.256 66.3679 22.424C67.2959 21.592 67.8639 20.464 68.0719 19.04H61.8079V16.856H70.9999V18.992C70.8239 20.288 70.3599 21.48 69.6079 22.568C68.8719 23.656 67.9039 24.528 66.7039 25.184C65.5199 25.824 64.1999 26.144 62.7439 26.144C61.1759 26.144 59.7439 25.784 58.4479 25.064C57.1519 24.328 56.1199 23.312 55.3519 22.016C54.5999 20.72 54.2239 19.256 54.2239 17.624C54.2239 15.992 54.5999 14.528 55.3519 13.232C56.1199 11.936 57.1519 10.928 58.4479 10.208C59.7599 9.472 61.1919 9.104 62.7439 9.104C64.5199 9.104 66.0959 9.544 67.4719 10.424C68.8639 11.288 69.8719 12.52 70.4959 14.12H67.2079ZM76.4344 14.696C76.8344 14.024 77.3624 13.504 78.0184 13.136C78.6904 12.752 79.4824 12.56 80.3944 12.56V15.392H79.6984C78.6264 15.392 77.8104 15.664 77.2504 16.208C76.7064 16.752 76.4344 17.696 76.4344 19.04V26H73.6984V12.776H76.4344V14.696ZM81.9974 19.328C81.9974 18 82.2694 16.824 82.8134 15.8C83.3734 14.776 84.1254 13.984 85.0694 13.424C86.0294 12.848 87.0854 12.56 88.2374 12.56C89.2774 12.56 90.1814 12.768 90.9494 13.184C91.7334 13.584 92.3574 14.088 92.8214 14.696V12.776H95.5814V26H92.8214V24.032C92.3574 24.656 91.7254 25.176 90.9254 25.592C90.1254 26.008 89.2134 26.216 88.1894 26.216C87.0534 26.216 86.0134 25.928 85.0694 25.352C84.1254 24.76 83.3734 23.944 82.8134 22.904C82.2694 21.848 81.9974 20.656 81.9974 19.328ZM92.8214 19.376C92.8214 18.464 92.6294 17.672 92.2454 17C91.8774 16.328 91.3894 15.816 90.7814 15.464C90.1734 15.112 89.5174 14.936 88.8134 14.936C88.1094 14.936 87.4534 15.112 86.8454 15.464C86.2374 15.8 85.7414 16.304 85.3574 16.976C84.9894 17.632 84.8054 18.416 84.8054 19.328C84.8054 20.24 84.9894 21.04 85.3574 21.728C85.7414 22.416 86.2374 22.944 86.8454 23.312C87.4694 23.664 88.1254 23.84 88.8134 23.84C89.5174 23.84 90.1734 23.664 90.7814 23.312C91.3894 22.96 91.8774 22.448 92.2454 21.776C92.6294 21.088 92.8214 20.288 92.8214 19.376ZM101.911 14.72C102.375 14.112 103.007 13.6 103.807 13.184C104.607 12.768 105.511 12.56 106.519 12.56C107.671 12.56 108.719 12.848 109.663 13.424C110.623 13.984 111.375 14.776 111.919 15.8C112.463 16.824 112.735 18 112.735 19.328C112.735 20.656 112.463 21.848 111.919 22.904C111.375 23.944 110.623 24.76 109.663 25.352C108.719 25.928 107.671 26.216 106.519 26.216C105.511 26.216 104.615 26.016 103.831 25.616C103.047 25.2 102.407 24.688 101.911 24.08V32.288H99.175V12.776H101.911V14.72ZM109.951 19.328C109.951 18.416 109.759 17.632 109.375 16.976C109.007 16.304 108.511 15.8 107.887 15.464C107.279 15.112 106.623 14.936 105.919 14.936C105.231 14.936 104.575 15.112 103.951 15.464C103.343 15.816 102.847 16.328 102.463 17C102.095 17.672 101.911 18.464 101.911 19.376C101.911 20.288 102.095 21.088 102.463 21.776C102.847 22.448 103.343 22.96 103.951 23.312C104.575 23.664 105.231 23.84 105.919 23.84C106.623 23.84 107.279 23.664 107.887 23.312C108.511 22.944 109.007 22.416 109.375 21.728C109.759 21.04 109.951 20.24 109.951 19.328ZM122.281 12.56C123.289 12.56 124.185 12.776 124.969 13.208C125.769 13.64 126.393 14.28 126.841 15.128C127.305 15.976 127.537 17 127.537 18.2V26H124.825V18.608C124.825 17.424 124.529 16.52 123.937 15.896C123.345 15.256 122.537 14.936 121.513 14.936C120.489 14.936 119.673 15.256 119.065 15.896C118.473 16.52 118.177 17.424 118.177 18.608V26H115.441V8.24H118.177V14.312C118.641 13.752 119.225 13.32 119.929 13.016C120.649 12.712 121.433 12.56 122.281 12.56ZM132.419 11.024C131.923 11.024 131.507 10.856 131.171 10.52C130.835 10.184 130.667 9.768 130.667 9.272C130.667 8.776 130.835 8.36 131.171 8.024C131.507 7.688 131.923 7.52 132.419 7.52C132.899 7.52 133.307 7.688 133.643 8.024C133.979 8.36 134.147 8.776 134.147 9.272C134.147 9.768 133.979 10.184 133.643 10.52C133.307 10.856 132.899 11.024 132.419 11.024ZM133.763 12.776V26H131.027V12.776H133.763ZM136.443 19.376C136.443 18.016 136.715 16.824 137.259 15.8C137.819 14.76 138.587 13.96 139.563 13.4C140.539 12.84 141.659 12.56 142.923 12.56C144.523 12.56 145.843 12.944 146.883 13.712C147.939 14.464 148.651 15.544 149.019 16.952H146.067C145.827 16.296 145.443 15.784 144.915 15.416C144.387 15.048 143.723 14.864 142.923 14.864C141.803 14.864 140.907 15.264 140.235 16.064C139.579 16.848 139.251 17.952 139.251 19.376C139.251 20.8 139.579 21.912 140.235 22.712C140.907 23.512 141.803 23.912 142.923 23.912C144.507 23.912 145.555 23.216 146.067 21.824H149.019C148.635 23.168 147.915 24.24 146.859 25.04C145.803 25.824 144.491 26.216 142.923 26.216C141.659 26.216 140.539 25.936 139.563 25.376C138.587 24.8 137.819 24 137.259 22.976C136.715 21.936 136.443 20.736 136.443 19.376ZM163.428 9.32C165.204 9.32 166.756 9.664 168.084 10.352C169.428 11.024 170.46 12 171.18 13.28C171.916 14.544 172.284 16.024 172.284 17.72C172.284 19.416 171.916 20.888 171.18 22.136C170.46 23.384 169.428 24.344 168.084 25.016C166.756 25.672 165.204 26 163.428 26H157.98V9.32H163.428ZM163.428 23.768C165.38 23.768 166.876 23.24 167.916 22.184C168.956 21.128 169.476 19.64 169.476 17.72C169.476 15.784 168.956 14.272 167.916 13.184C166.876 12.096 165.38 11.552 163.428 11.552H160.716V23.768H163.428ZM187.115 19.064C187.115 19.56 187.083 20.008 187.019 20.408H176.915C176.995 21.464 177.387 22.312 178.091 22.952C178.795 23.592 179.659 23.912 180.683 23.912C182.155 23.912 183.195 23.296 183.803 22.064H186.755C186.355 23.28 185.627 24.28 184.571 25.064C183.531 25.832 182.235 26.216 180.683 26.216C179.419 26.216 178.283 25.936 177.275 25.376C176.283 24.8 175.499 24 174.923 22.976C174.363 21.936 174.083 20.736 174.083 19.376C174.083 18.016 174.355 16.824 174.899 15.8C175.459 14.76 176.235 13.96 177.227 13.4C178.235 12.84 179.387 12.56 180.683 12.56C181.931 12.56 183.043 12.832 184.019 13.376C184.995 13.92 185.755 14.688 186.299 15.68C186.843 16.656 187.115 17.784 187.115 19.064ZM184.259 18.2C184.243 17.192 183.883 16.384 183.179 15.776C182.475 15.168 181.603 14.864 180.563 14.864C179.619 14.864 178.811 15.168 178.139 15.776C177.467 16.368 177.067 17.176 176.939 18.2H184.259ZM194.608 26.216C193.568 26.216 192.632 26.032 191.8 25.664C190.984 25.28 190.336 24.768 189.856 24.128C189.376 23.472 189.12 22.744 189.088 21.944H191.92C191.968 22.504 192.232 22.976 192.712 23.36C193.208 23.728 193.824 23.912 194.56 23.912C195.328 23.912 195.92 23.768 196.336 23.48C196.768 23.176 196.984 22.792 196.984 22.328C196.984 21.832 196.744 21.464 196.264 21.224C195.8 20.984 195.056 20.72 194.032 20.432C193.04 20.16 192.232 19.896 191.608 19.64C190.984 19.384 190.44 18.992 189.976 18.464C189.528 17.936 189.304 17.24 189.304 16.376C189.304 15.672 189.512 15.032 189.928 14.456C190.344 13.864 190.936 13.4 191.704 13.064C192.488 12.728 193.384 12.56 194.392 12.56C195.896 12.56 197.104 12.944 198.016 13.712C198.944 14.464 199.44 15.496 199.504 16.808H196.768C196.72 16.216 196.48 15.744 196.048 15.392C195.616 15.04 195.032 14.864 194.296 14.864C193.576 14.864 193.024 15 192.64 15.272C192.256 15.544 192.064 15.904 192.064 16.352C192.064 16.704 192.192 17 192.448 17.24C192.704 17.48 193.016 17.672 193.384 17.816C193.752 17.944 194.296 18.112 195.016 18.32C195.976 18.576 196.76 18.84 197.368 19.112C197.992 19.368 198.528 19.752 198.976 20.264C199.424 20.776 199.656 21.456 199.672 22.304C199.672 23.056 199.464 23.728 199.048 24.32C198.632 24.912 198.04 25.376 197.272 25.712C196.52 26.048 195.632 26.216 194.608 26.216ZM204.02 11.024C203.524 11.024 203.108 10.856 202.772 10.52C202.436 10.184 202.268 9.768 202.268 9.272C202.268 8.776 202.436 8.36 202.772 8.024C203.108 7.688 203.524 7.52 204.02 7.52C204.5 7.52 204.908 7.688 205.244 8.024C205.58 8.36 205.748 8.776 205.748 9.272C205.748 9.768 205.58 10.184 205.244 10.52C204.908 10.856 204.5 11.024 204.02 11.024ZM205.364 12.776V26H202.628V12.776H205.364ZM214.284 12.56C215.308 12.56 216.212 12.768 216.996 13.184C217.796 13.584 218.42 14.088 218.868 14.696V12.776H221.628V26.216C221.628 27.432 221.372 28.512 220.86 29.456C220.348 30.416 219.604 31.168 218.628 31.712C217.668 32.256 216.516 32.528 215.172 32.528C213.38 32.528 211.892 32.104 210.708 31.256C209.524 30.424 208.852 29.288 208.692 27.848H211.404C211.612 28.536 212.052 29.088 212.724 29.504C213.412 29.936 214.228 30.152 215.172 30.152C216.276 30.152 217.164 29.816 217.836 29.144C218.524 28.472 218.868 27.496 218.868 26.216V24.008C218.404 24.632 217.772 25.16 216.972 25.592C216.188 26.008 215.292 26.216 214.284 26.216C213.132 26.216 212.076 25.928 211.116 25.352C210.172 24.76 209.42 23.944 208.86 22.904C208.316 21.848 208.044 20.656 208.044 19.328C208.044 18 208.316 16.824 208.86 15.8C209.42 14.776 210.172 13.984 211.116 13.424C212.076 12.848 213.132 12.56 214.284 12.56ZM218.868 19.376C218.868 18.464 218.676 17.672 218.292 17C217.924 16.328 217.436 15.816 216.828 15.464C216.22 15.112 215.564 14.936 214.86 14.936C214.156 14.936 213.5 15.112 212.892 15.464C212.284 15.8 211.788 16.304 211.404 16.976C211.036 17.632 210.852 18.416 210.852 19.328C210.852 20.24 211.036 21.04 211.404 21.728C211.788 22.416 212.284 22.944 212.892 23.312C213.516 23.664 214.172 23.84 214.86 23.84C215.564 23.84 216.22 23.664 216.828 23.312C217.436 22.96 217.924 22.448 218.292 21.776C218.676 21.088 218.868 20.288 218.868 19.376ZM231.894 12.56C232.934 12.56 233.862 12.776 234.678 13.208C235.51 13.64 236.158 14.28 236.622 15.128C237.086 15.976 237.318 17 237.318 18.2V26H234.606V18.608C234.606 17.424 234.31 16.52 233.718 15.896C233.126 15.256 232.318 14.936 231.294 14.936C230.27 14.936 229.454 15.256 228.846 15.896C228.254 16.52 227.958 17.424 227.958 18.608V26H225.222V12.776H227.958V14.288C228.406 13.744 228.974 13.32 229.662 13.016C230.366 12.712 231.11 12.56 231.894 12.56ZM86.4288 50.288C86.4288 51.136 86.2288 51.936 85.8288 52.688C85.4288 53.44 84.7888 54.056 83.9088 54.536C83.0288 55 81.9008 55.232 80.5248 55.232H77.5008V62H74.7648V45.32H80.5248C81.8048 45.32 82.8848 45.544 83.7648 45.992C84.6608 46.424 85.3248 47.016 85.7568 47.768C86.2048 48.52 86.4288 49.36 86.4288 50.288ZM80.5248 53C81.5648 53 82.3408 52.768 82.8528 52.304C83.3648 51.824 83.6208 51.152 83.6208 50.288C83.6208 48.464 82.5888 47.552 80.5248 47.552H77.5008V53H80.5248ZM91.7743 50.696C92.1743 50.024 92.7023 49.504 93.3583 49.136C94.0303 48.752 94.8223 48.56 95.7343 48.56V51.392H95.0383C93.9663 51.392 93.1503 51.664 92.5903 52.208C92.0463 52.752 91.7743 53.696 91.7743 55.04V62H89.0383V48.776H91.7743V50.696ZM103.985 62.216C102.737 62.216 101.609 61.936 100.601 61.376C99.5932 60.8 98.8012 60 98.2252 58.976C97.6492 57.936 97.3612 56.736 97.3612 55.376C97.3612 54.032 97.6572 52.84 98.2492 51.8C98.8412 50.76 99.6492 49.96 100.673 49.4C101.697 48.84 102.841 48.56 104.105 48.56C105.369 48.56 106.513 48.84 107.537 49.4C108.561 49.96 109.369 50.76 109.961 51.8C110.553 52.84 110.849 54.032 110.849 55.376C110.849 56.72 110.545 57.912 109.937 58.952C109.329 59.992 108.497 60.8 107.441 61.376C106.401 61.936 105.249 62.216 103.985 62.216ZM103.985 59.84C104.689 59.84 105.345 59.672 105.953 59.336C106.577 59 107.081 58.496 107.465 57.824C107.849 57.152 108.041 56.336 108.041 55.376C108.041 54.416 107.857 53.608 107.489 52.952C107.121 52.28 106.633 51.776 106.025 51.44C105.417 51.104 104.761 50.936 104.057 50.936C103.353 50.936 102.697 51.104 102.089 51.44C101.497 51.776 101.025 52.28 100.673 52.952C100.321 53.608 100.145 54.416 100.145 55.376C100.145 56.8 100.505 57.904 101.225 58.688C101.961 59.456 102.881 59.84 103.985 59.84ZM114.946 47.024C114.45 47.024 114.034 46.856 113.698 46.52C113.362 46.184 113.194 45.768 113.194 45.272C113.194 44.776 113.362 44.36 113.698 44.024C114.034 43.688 114.45 43.52 114.946 43.52C115.426 43.52 115.834 43.688 116.17 44.024C116.506 44.36 116.674 44.776 116.674 45.272C116.674 45.768 116.506 46.184 116.17 46.52C115.834 46.856 115.426 47.024 114.946 47.024ZM116.29 64.592C116.29 65.888 115.962 66.824 115.306 67.4C114.666 67.992 113.73 68.288 112.498 68.288H111.082V65.984H112.018C112.578 65.984 112.97 65.872 113.194 65.648C113.434 65.44 113.554 65.088 113.554 64.592V48.776H116.29V64.592ZM132.002 55.064C132.002 55.56 131.97 56.008 131.906 56.408H121.802C121.882 57.464 122.274 58.312 122.978 58.952C123.682 59.592 124.546 59.912 125.57 59.912C127.042 59.912 128.082 59.296 128.69 58.064H131.642C131.242 59.28 130.514 60.28 129.458 61.064C128.418 61.832 127.122 62.216 125.57 62.216C124.306 62.216 123.17 61.936 122.162 61.376C121.17 60.8 120.386 60 119.81 58.976C119.25 57.936 118.97 56.736 118.97 55.376C118.97 54.016 119.242 52.824 119.786 51.8C120.346 50.76 121.122 49.96 122.114 49.4C123.122 48.84 124.274 48.56 125.57 48.56C126.818 48.56 127.93 48.832 128.906 49.376C129.882 49.92 130.642 50.688 131.186 51.68C131.73 52.656 132.002 53.784 132.002 55.064ZM129.146 54.2C129.13 53.192 128.77 52.384 128.066 51.776C127.362 51.168 126.49 50.864 125.45 50.864C124.506 50.864 123.698 51.168 123.026 51.776C122.354 52.368 121.954 53.176 121.826 54.2H129.146ZM133.783 55.376C133.783 54.016 134.055 52.824 134.599 51.8C135.159 50.76 135.927 49.96 136.903 49.4C137.879 48.84 138.999 48.56 140.263 48.56C141.863 48.56 143.183 48.944 144.223 49.712C145.279 50.464 145.991 51.544 146.359 52.952H143.407C143.167 52.296 142.783 51.784 142.255 51.416C141.727 51.048 141.063 50.864 140.263 50.864C139.143 50.864 138.247 51.264 137.575 52.064C136.919 52.848 136.591 53.952 136.591 55.376C136.591 56.8 136.919 57.912 137.575 58.712C138.247 59.512 139.143 59.912 140.263 59.912C141.847 59.912 142.895 59.216 143.407 57.824H146.359C145.975 59.168 145.255 60.24 144.199 61.04C143.143 61.824 141.831 62.216 140.263 62.216C138.999 62.216 137.879 61.936 136.903 61.376C135.927 60.8 135.159 60 134.599 58.976C134.055 57.936 133.783 56.736 133.783 55.376ZM152.277 51.008V58.328C152.277 58.824 152.389 59.184 152.613 59.408C152.853 59.616 153.253 59.72 153.813 59.72H155.493V62H153.333C152.101 62 151.157 61.712 150.501 61.136C149.845 60.56 149.517 59.624 149.517 58.328V51.008H147.957V48.776H149.517V45.488H152.277V48.776H155.493V51.008H152.277ZM162.815 62.216C161.775 62.216 160.839 62.032 160.007 61.664C159.191 61.28 158.543 60.768 158.063 60.128C157.583 59.472 157.327 58.744 157.295 57.944H160.127C160.175 58.504 160.439 58.976 160.919 59.36C161.415 59.728 162.031 59.912 162.767 59.912C163.535 59.912 164.127 59.768 164.543 59.48C164.975 59.176 165.191 58.792 165.191 58.328C165.191 57.832 164.951 57.464 164.471 57.224C164.007 56.984 163.263 56.72 162.239 56.432C161.247 56.16 160.439 55.896 159.815 55.64C159.191 55.384 158.647 54.992 158.183 54.464C157.735 53.936 157.511 53.24 157.511 52.376C157.511 51.672 157.719 51.032 158.135 50.456C158.551 49.864 159.143 49.4 159.911 49.064C160.695 48.728 161.591 48.56 162.599 48.56C164.103 48.56 165.311 48.944 166.223 49.712C167.151 50.464 167.647 51.496 167.711 52.808H164.975C164.927 52.216 164.687 51.744 164.255 51.392C163.823 51.04 163.239 50.864 162.503 50.864C161.783 50.864 161.231 51 160.847 51.272C160.463 51.544 160.271 51.904 160.271 52.352C160.271 52.704 160.399 53 160.655 53.24C160.911 53.48 161.223 53.672 161.591 53.816C161.959 53.944 162.503 54.112 163.223 54.32C164.183 54.576 164.967 54.84 165.575 55.112C166.199 55.368 166.735 55.752 167.183 56.264C167.631 56.776 167.863 57.456 167.879 58.304C167.879 59.056 167.671 59.728 167.255 60.32C166.839 60.912 166.247 61.376 165.479 61.712C164.727 62.048 163.839 62.216 162.815 62.216Z" fill="#EEECEA"/>
</svg>
