<svg width="39" height="54" viewBox="0 0 39 54" fill="none" xmlns="http://www.w3.org/2000/svg">
<path fill-rule="evenodd" clip-rule="evenodd" d="M9.58326 8.78085C15.2824 3.13774 24.5322 3.13642 30.2316 8.78291C31.5826 10.1145 32.6554 11.7013 33.3877 13.4511C34.12 15.2009 34.4971 17.0789 34.4972 18.9757C34.4972 20.8725 34.1202 22.7505 33.388 24.5003C32.6558 26.25 31.583 27.8368 30.2321 29.1683C29.3473 30.0454 28.3538 30.8057 27.2759 31.4305C26.9396 31.625 26.6608 31.9052 26.4679 32.2424C26.275 32.5796 26.1748 32.9619 26.1775 33.3504L26.1994 36.5836L19.898 36.5835L14.2781 36.5833L13.637 36.5833L13.6385 33.3361C13.6389 32.9501 13.5378 32.5708 13.3452 32.2363C13.1527 31.9017 12.8755 31.6237 12.5416 31.4301C11.4631 30.8059 10.4691 30.0462 9.58375 29.1693C8.23228 27.8378 7.15905 26.2507 6.42649 24.5006C5.69393 22.7505 5.31665 20.8722 5.3166 18.975C5.31656 17.0778 5.69374 15.1995 6.42622 13.4494C7.1587 11.6993 8.23185 10.1124 9.58326 8.78085ZM9.24942 37.078C9.3243 37.7833 9.57022 38.4596 9.96584 39.0483C10.3615 39.6369 10.8948 40.1201 11.5196 40.4559L11.8589 45.3912L11.9025 46.2127C11.9695 47.5045 12.3476 48.761 13.0045 49.8752C13.6615 50.9895 14.5778 51.9287 15.6756 52.6128C16.7734 53.2969 18.0202 53.7058 19.3099 53.8046C20.5997 53.9034 21.8942 53.6892 23.0833 53.1803C24.4728 52.5868 25.6681 51.6155 26.5333 50.3768C27.3985 49.1381 27.899 47.6816 27.978 46.1727L28.1009 43.7719L28.3217 40.4547C28.9455 40.1189 29.4779 39.6361 29.8729 39.048C30.2679 38.46 30.5136 37.7845 30.5886 37.08C30.5978 36.9979 30.6025 36.9153 30.6026 36.8327L30.587 34.5455C31.5547 33.8951 32.4727 33.1452 33.3284 32.2957C35.0925 30.5552 36.4933 28.4815 37.4494 26.1951C38.4055 23.9088 38.8979 21.4552 38.898 18.9769C38.898 16.4986 38.4058 14.045 37.4499 11.7585C36.4939 9.47191 35.0933 7.39802 33.3293 5.65718C25.9137 -1.68684 13.9022 -1.68713 6.48694 5.65342C4.72222 7.39415 3.32097 9.46818 2.36459 11.755C1.4082 14.0419 0.915733 16.496 0.915793 18.9749C0.915853 21.4537 1.40844 23.9079 2.36494 26.1948C3.32144 28.4817 4.72279 30.5558 6.48759 32.2966C7.33216 33.1328 8.25313 33.8882 9.23847 34.5527L9.23853 36.8461C9.23853 36.9241 9.24269 37.002 9.25098 37.0795L9.24942 37.078ZM18.4824 49.1302C17.5997 48.7491 16.9041 48.0334 16.5484 47.1401L23.5624 46.1819C23.4115 47.4779 22.5698 48.6122 21.353 49.1318C20.899 49.3258 20.4104 49.4255 19.9166 49.425C19.4229 49.4244 18.9345 49.3236 18.4809 49.1286L18.4824 49.1302ZM15.8901 40.9056L16.0551 43.6814L23.9295 42.4166L24.1114 39.7047L15.8901 40.9056Z" fill="#EEECEA"/>
</svg>
