<svg width="282" height="68" viewBox="0 0 282 68" fill="none" xmlns="http://www.w3.org/2000/svg">
<path d="M112.071 57.9401L169.789 57.9401" stroke="#F6F6F6" stroke-width="2" stroke-linecap="round" stroke-linejoin="round"/>
<path d="M160.088 66.2149L169.57 57.8883" stroke="#F6F6F6" stroke-width="2" stroke-linecap="round" stroke-linejoin="round"/>
<path d="M160.088 49.5615L169.57 57.8882" stroke="#F6F6F6" stroke-width="2" stroke-linecap="round" stroke-linejoin="round"/>
<path d="M8.42826 26.9364C7.30826 26.9364 6.30026 26.7444 5.40426 26.3604C4.50826 25.9604 3.80426 25.4004 3.29226 24.6804C2.78026 23.9604 2.52426 23.1204 2.52426 22.1604H5.45226C5.51626 22.8804 5.79626 23.4724 6.29226 23.9364C6.80426 24.4004 7.51626 24.6324 8.42826 24.6324C9.37226 24.6324 10.1083 24.4084 10.6363 23.9604C11.1643 23.4964 11.4283 22.9044 11.4283 22.1844C11.4283 21.6244 11.2603 21.1684 10.9243 20.8164C10.6043 20.4644 10.1963 20.1924 9.70026 20.0004C9.22026 19.8084 8.54826 19.6004 7.68426 19.3764C6.59626 19.0884 5.70826 18.8004 5.02026 18.5124C4.34826 18.2084 3.77226 17.7444 3.29226 17.1204C2.81226 16.4964 2.57226 15.6644 2.57226 14.6244C2.57226 13.6644 2.81226 12.8244 3.29226 12.1044C3.77226 11.3844 4.44426 10.8324 5.30826 10.4484C6.17226 10.0644 7.17226 9.87243 8.30826 9.87243C9.92426 9.87243 11.2443 10.2804 12.2683 11.0964C13.3083 11.8964 13.8843 13.0004 13.9963 14.4084H10.9723C10.9243 13.8004 10.6363 13.2804 10.1083 12.8484C9.58026 12.4164 8.88426 12.2004 8.02026 12.2004C7.23626 12.2004 6.59626 12.4004 6.10026 12.8004C5.60426 13.2004 5.35626 13.7764 5.35626 14.5284C5.35626 15.0404 5.50826 15.4644 5.81226 15.8004C6.13226 16.1204 6.53226 16.3764 7.01226 16.5684C7.49226 16.7604 8.14826 16.9684 8.98026 17.1924C10.0843 17.4964 10.9803 17.8004 11.6683 18.1044C12.3723 18.4084 12.9643 18.8804 13.4443 19.5204C13.9403 20.1444 14.1883 20.9844 14.1883 22.0404C14.1883 22.8884 13.9563 23.6884 13.4923 24.4404C13.0443 25.1924 12.3803 25.8004 11.5003 26.2644C10.6363 26.7124 9.61226 26.9364 8.42826 26.9364ZM29.5366 19.8324C29.5366 20.3284 29.5046 20.7764 29.4406 21.1764H19.3366C19.4166 22.2324 19.8086 23.0804 20.5126 23.7204C21.2166 24.3604 22.0806 24.6804 23.1046 24.6804C24.5766 24.6804 25.6166 24.0644 26.2246 22.8324H29.1766C28.7766 24.0484 28.0486 25.0484 26.9926 25.8324C25.9526 26.6004 24.6566 26.9844 23.1046 26.9844C21.8406 26.9844 20.7046 26.7044 19.6966 26.1444C18.7046 25.5684 17.9206 24.7684 17.3446 23.7444C16.7846 22.7044 16.5046 21.5044 16.5046 20.1444C16.5046 18.7844 16.7766 17.5924 17.3206 16.5684C17.8806 15.5284 18.6566 14.7284 19.6486 14.1684C20.6566 13.6084 21.8086 13.3284 23.1046 13.3284C24.3526 13.3284 25.4646 13.6004 26.4406 14.1444C27.4166 14.6884 28.1766 15.4564 28.7206 16.4484C29.2646 17.4244 29.5366 18.5524 29.5366 19.8324ZM26.6806 18.9684C26.6646 17.9604 26.3046 17.1524 25.6006 16.5444C24.8966 15.9364 24.0246 15.6324 22.9846 15.6324C22.0406 15.6324 21.2326 15.9364 20.5606 16.5444C19.8886 17.1364 19.4886 17.9444 19.3606 18.9684H26.6806ZM44.3491 19.8324C44.3491 20.3284 44.3171 20.7764 44.2531 21.1764H34.1491C34.2291 22.2324 34.6211 23.0804 35.3251 23.7204C36.0291 24.3604 36.8931 24.6804 37.9171 24.6804C39.3891 24.6804 40.4291 24.0644 41.0371 22.8324H43.9891C43.5891 24.0484 42.8611 25.0484 41.8051 25.8324C40.7651 26.6004 39.4691 26.9844 37.9171 26.9844C36.6531 26.9844 35.5171 26.7044 34.5091 26.1444C33.5171 25.5684 32.7331 24.7684 32.1571 23.7444C31.5971 22.7044 31.3171 21.5044 31.3171 20.1444C31.3171 18.7844 31.5891 17.5924 32.1331 16.5684C32.6931 15.5284 33.4691 14.7284 34.4611 14.1684C35.4691 13.6084 36.6211 13.3284 37.9171 13.3284C39.1651 13.3284 40.2771 13.6004 41.2531 14.1444C42.2291 14.6884 42.9891 15.4564 43.5331 16.4484C44.0771 17.4244 44.3491 18.5524 44.3491 19.8324ZM41.4931 18.9684C41.4771 17.9604 41.1171 17.1524 40.4131 16.5444C39.7091 15.9364 38.8371 15.6324 37.7971 15.6324C36.8531 15.6324 36.0451 15.9364 35.3731 16.5444C34.7011 17.1364 34.3011 17.9444 34.1731 18.9684H41.4931ZM56.012 10.0884V26.7684H53.276V10.0884H56.012ZM62.3401 9.00843V26.7684H59.6041V9.00843H62.3401ZM68.6683 9.00843V26.7684H65.9323V9.00843H68.6683ZM84.2364 13.5444V26.7684H81.5004V25.2084C81.0684 25.7524 80.5004 26.1844 79.7964 26.5044C79.1084 26.8084 78.3724 26.9604 77.5884 26.9604C76.5484 26.9604 75.6124 26.7444 74.7804 26.3124C73.9644 25.8804 73.3164 25.2404 72.8364 24.3924C72.3724 23.5444 72.1404 22.5204 72.1404 21.3204V13.5444H74.8524V20.9124C74.8524 22.0964 75.1484 23.0084 75.7404 23.6484C76.3324 24.2724 77.1404 24.5844 78.1644 24.5844C79.1884 24.5844 79.9964 24.2724 80.5884 23.6484C81.1964 23.0084 81.5004 22.0964 81.5004 20.9124V13.5444H84.2364ZM92.6463 26.9844C91.6063 26.9844 90.6703 26.8004 89.8383 26.4324C89.0223 26.0484 88.3743 25.5364 87.8943 24.8964C87.4143 24.2404 87.1583 23.5124 87.1263 22.7124H89.9583C90.0063 23.2724 90.2703 23.7444 90.7503 24.1284C91.2463 24.4964 91.8623 24.6804 92.5983 24.6804C93.3663 24.6804 93.9583 24.5364 94.3743 24.2484C94.8063 23.9444 95.0223 23.5604 95.0223 23.0964C95.0223 22.6004 94.7823 22.2324 94.3023 21.9924C93.8383 21.7524 93.0943 21.4884 92.0703 21.2004C91.0783 20.9284 90.2703 20.6644 89.6463 20.4084C89.0223 20.1524 88.4783 19.7604 88.0143 19.2324C87.5663 18.7044 87.3423 18.0084 87.3423 17.1444C87.3423 16.4404 87.5503 15.8004 87.9663 15.2244C88.3823 14.6324 88.9743 14.1684 89.7423 13.8324C90.5263 13.4964 91.4223 13.3284 92.4303 13.3284C93.9343 13.3284 95.1423 13.7124 96.0543 14.4804C96.9823 15.2324 97.4783 16.2644 97.5423 17.5764H94.8063C94.7583 16.9844 94.5183 16.5124 94.0863 16.1604C93.6543 15.8084 93.0703 15.6324 92.3343 15.6324C91.6143 15.6324 91.0623 15.7684 90.6783 16.0404C90.2943 16.3124 90.1023 16.6724 90.1023 17.1204C90.1023 17.4724 90.2303 17.7684 90.4863 18.0084C90.7423 18.2484 91.0543 18.4404 91.4223 18.5844C91.7903 18.7124 92.3343 18.8804 93.0543 19.0884C94.0143 19.3444 94.7983 19.6084 95.4063 19.8804C96.0303 20.1364 96.5663 20.5204 97.0143 21.0324C97.4623 21.5444 97.6943 22.2244 97.7103 23.0724C97.7103 23.8244 97.5023 24.4964 97.0863 25.0884C96.6703 25.6804 96.0783 26.1444 95.3103 26.4804C94.5583 26.8164 93.6703 26.9844 92.6463 26.9844ZM103.859 15.7764V23.0964C103.859 23.5924 103.971 23.9524 104.195 24.1764C104.435 24.3844 104.835 24.4884 105.395 24.4884H107.075V26.7684H104.915C103.683 26.7684 102.739 26.4804 102.083 25.9044C101.427 25.3284 101.099 24.3924 101.099 23.0964V15.7764H99.5386V13.5444H101.099V10.2564H103.859V13.5444H107.075V15.7764H103.859ZM112.332 15.4644C112.732 14.7924 113.26 14.2724 113.916 13.9044C114.588 13.5204 115.38 13.3284 116.292 13.3284V16.1604H115.596C114.524 16.1604 113.708 16.4324 113.148 16.9764C112.604 17.5204 112.332 18.4644 112.332 19.8084V26.7684H109.596V13.5444H112.332V15.4644ZM117.895 20.0964C117.895 18.7684 118.167 17.5924 118.711 16.5684C119.271 15.5444 120.023 14.7524 120.967 14.1924C121.927 13.6164 122.983 13.3284 124.135 13.3284C125.175 13.3284 126.079 13.5364 126.847 13.9524C127.631 14.3524 128.255 14.8564 128.719 15.4644V13.5444H131.479V26.7684H128.719V24.8004C128.255 25.4244 127.623 25.9444 126.823 26.3604C126.023 26.7764 125.111 26.9844 124.087 26.9844C122.951 26.9844 121.911 26.6964 120.967 26.1204C120.023 25.5284 119.271 24.7124 118.711 23.6724C118.167 22.6164 117.895 21.4244 117.895 20.0964ZM128.719 20.1444C128.719 19.2324 128.527 18.4404 128.143 17.7684C127.775 17.0964 127.287 16.5844 126.679 16.2324C126.071 15.8804 125.415 15.7044 124.711 15.7044C124.007 15.7044 123.351 15.8804 122.743 16.2324C122.135 16.5684 121.639 17.0724 121.255 17.7444C120.887 18.4004 120.703 19.1844 120.703 20.0964C120.703 21.0084 120.887 21.8084 121.255 22.4964C121.639 23.1844 122.135 23.7124 122.743 24.0804C123.367 24.4324 124.023 24.6084 124.711 24.6084C125.415 24.6084 126.071 24.4324 126.679 24.0804C127.287 23.7284 127.775 23.2164 128.143 22.5444C128.527 21.8564 128.719 21.0564 128.719 20.1444ZM138.265 15.7764V23.0964C138.265 23.5924 138.377 23.9524 138.601 24.1764C138.841 24.3844 139.241 24.4884 139.801 24.4884H141.481V26.7684H139.321C138.089 26.7684 137.145 26.4804 136.489 25.9044C135.833 25.3284 135.505 24.3924 135.505 23.0964V15.7764H133.945V13.5444H135.505V10.2564H138.265V13.5444H141.481V15.7764H138.265ZM145.395 11.7924C144.899 11.7924 144.483 11.6244 144.147 11.2884C143.811 10.9524 143.643 10.5364 143.643 10.0404C143.643 9.54443 143.811 9.12843 144.147 8.79243C144.483 8.45643 144.899 8.28843 145.395 8.28843C145.875 8.28843 146.283 8.45643 146.619 8.79243C146.955 9.12843 147.123 9.54443 147.123 10.0404C147.123 10.5364 146.955 10.9524 146.619 11.2884C146.283 11.6244 145.875 11.7924 145.395 11.7924ZM146.739 13.5444V26.7684H144.003V13.5444H146.739ZM156.067 26.9844C154.819 26.9844 153.691 26.7044 152.683 26.1444C151.675 25.5684 150.883 24.7684 150.307 23.7444C149.731 22.7044 149.443 21.5044 149.443 20.1444C149.443 18.8004 149.739 17.6084 150.331 16.5684C150.923 15.5284 151.731 14.7284 152.755 14.1684C153.779 13.6084 154.923 13.3284 156.187 13.3284C157.451 13.3284 158.595 13.6084 159.619 14.1684C160.643 14.7284 161.451 15.5284 162.043 16.5684C162.635 17.6084 162.931 18.8004 162.931 20.1444C162.931 21.4884 162.627 22.6804 162.019 23.7204C161.411 24.7604 160.579 25.5684 159.523 26.1444C158.483 26.7044 157.331 26.9844 156.067 26.9844ZM156.067 24.6084C156.771 24.6084 157.427 24.4404 158.035 24.1044C158.659 23.7684 159.163 23.2644 159.547 22.5924C159.931 21.9204 160.123 21.1044 160.123 20.1444C160.123 19.1844 159.939 18.3764 159.571 17.7204C159.203 17.0484 158.715 16.5444 158.107 16.2084C157.499 15.8724 156.843 15.7044 156.139 15.7044C155.435 15.7044 154.779 15.8724 154.171 16.2084C153.579 16.5444 153.107 17.0484 152.755 17.7204C152.403 18.3764 152.227 19.1844 152.227 20.1444C152.227 21.5684 152.587 22.6724 153.307 23.4564C154.043 24.2244 154.963 24.6084 156.067 24.6084ZM172.307 13.3284C173.347 13.3284 174.275 13.5444 175.091 13.9764C175.923 14.4084 176.571 15.0484 177.035 15.8964C177.499 16.7444 177.731 17.7684 177.731 18.9684V26.7684H175.019V19.3764C175.019 18.1924 174.723 17.2884 174.131 16.6644C173.539 16.0244 172.731 15.7044 171.707 15.7044C170.683 15.7044 169.867 16.0244 169.259 16.6644C168.667 17.2884 168.371 18.1924 168.371 19.3764V26.7684H165.635V13.5444H168.371V15.0564C168.819 14.5124 169.387 14.0884 170.075 13.7844C170.779 13.4804 171.523 13.3284 172.307 13.3284ZM199.12 15.0564C199.12 15.9044 198.92 16.7044 198.52 17.4564C198.12 18.2084 197.48 18.8244 196.6 19.3044C195.72 19.7684 194.592 20.0004 193.216 20.0004H190.192V26.7684H187.456V10.0884H193.216C194.496 10.0884 195.576 10.3124 196.456 10.7604C197.352 11.1924 198.016 11.7844 198.448 12.5364C198.896 13.2884 199.12 14.1284 199.12 15.0564ZM193.216 17.7684C194.256 17.7684 195.032 17.5364 195.544 17.0724C196.056 16.5924 196.312 15.9204 196.312 15.0564C196.312 13.2324 195.28 12.3204 193.216 12.3204H190.192V17.7684H193.216ZM204.465 15.4644C204.865 14.7924 205.393 14.2724 206.049 13.9044C206.721 13.5204 207.513 13.3284 208.425 13.3284V16.1604H207.729C206.657 16.1604 205.841 16.4324 205.281 16.9764C204.737 17.5204 204.465 18.4644 204.465 19.8084V26.7684H201.729V13.5444H204.465V15.4644ZM216.676 26.9844C215.428 26.9844 214.3 26.7044 213.292 26.1444C212.284 25.5684 211.492 24.7684 210.916 23.7444C210.34 22.7044 210.052 21.5044 210.052 20.1444C210.052 18.8004 210.348 17.6084 210.94 16.5684C211.532 15.5284 212.34 14.7284 213.364 14.1684C214.388 13.6084 215.532 13.3284 216.796 13.3284C218.06 13.3284 219.204 13.6084 220.228 14.1684C221.252 14.7284 222.06 15.5284 222.652 16.5684C223.244 17.6084 223.54 18.8004 223.54 20.1444C223.54 21.4884 223.236 22.6804 222.628 23.7204C222.02 24.7604 221.188 25.5684 220.132 26.1444C219.092 26.7044 217.94 26.9844 216.676 26.9844ZM216.676 24.6084C217.38 24.6084 218.036 24.4404 218.644 24.1044C219.268 23.7684 219.772 23.2644 220.156 22.5924C220.54 21.9204 220.732 21.1044 220.732 20.1444C220.732 19.1844 220.548 18.3764 220.18 17.7204C219.812 17.0484 219.324 16.5444 218.716 16.2084C218.108 15.8724 217.452 15.7044 216.748 15.7044C216.044 15.7044 215.388 15.8724 214.78 16.2084C214.188 16.5444 213.716 17.0484 213.364 17.7204C213.012 18.3764 212.836 19.1844 212.836 20.1444C212.836 21.5684 213.196 22.6724 213.916 23.4564C214.652 24.2244 215.572 24.6084 216.676 24.6084ZM227.637 11.7924C227.141 11.7924 226.725 11.6244 226.389 11.2884C226.053 10.9524 225.885 10.5364 225.885 10.0404C225.885 9.54443 226.053 9.12843 226.389 8.79243C226.725 8.45643 227.141 8.28843 227.637 8.28843C228.117 8.28843 228.525 8.45643 228.861 8.79243C229.197 9.12843 229.365 9.54443 229.365 10.0404C229.365 10.5364 229.197 10.9524 228.861 11.2884C228.525 11.6244 228.117 11.7924 227.637 11.7924ZM228.981 29.3604C228.981 30.6564 228.653 31.5924 227.997 32.1684C227.357 32.7604 226.421 33.0564 225.189 33.0564H223.773V30.7524H224.709C225.269 30.7524 225.661 30.6404 225.885 30.4164C226.125 30.2084 226.245 29.8564 226.245 29.3604V13.5444H228.981V29.3604ZM244.693 19.8324C244.693 20.3284 244.661 20.7764 244.597 21.1764H234.493C234.573 22.2324 234.965 23.0804 235.669 23.7204C236.373 24.3604 237.237 24.6804 238.261 24.6804C239.733 24.6804 240.773 24.0644 241.381 22.8324H244.333C243.933 24.0484 243.205 25.0484 242.149 25.8324C241.109 26.6004 239.813 26.9844 238.261 26.9844C236.997 26.9844 235.861 26.7044 234.853 26.1444C233.861 25.5684 233.077 24.7684 232.501 23.7444C231.941 22.7044 231.661 21.5044 231.661 20.1444C231.661 18.7844 231.933 17.5924 232.477 16.5684C233.037 15.5284 233.813 14.7284 234.805 14.1684C235.813 13.6084 236.965 13.3284 238.261 13.3284C239.509 13.3284 240.621 13.6004 241.597 14.1444C242.573 14.6884 243.333 15.4564 243.877 16.4484C244.421 17.4244 244.693 18.5524 244.693 19.8324ZM241.837 18.9684C241.821 17.9604 241.461 17.1524 240.757 16.5444C240.053 15.9364 239.181 15.6324 238.141 15.6324C237.197 15.6324 236.389 15.9364 235.717 16.5444C235.045 17.1364 234.645 17.9444 234.517 18.9684H241.837ZM246.473 20.1444C246.473 18.7844 246.745 17.5924 247.289 16.5684C247.849 15.5284 248.617 14.7284 249.593 14.1684C250.569 13.6084 251.689 13.3284 252.953 13.3284C254.553 13.3284 255.873 13.7124 256.913 14.4804C257.969 15.2324 258.681 16.3124 259.049 17.7204H256.097C255.857 17.0644 255.473 16.5524 254.945 16.1844C254.417 15.8164 253.753 15.6324 252.953 15.6324C251.833 15.6324 250.937 16.0324 250.265 16.8324C249.609 17.6164 249.281 18.7204 249.281 20.1444C249.281 21.5684 249.609 22.6804 250.265 23.4804C250.937 24.2804 251.833 24.6804 252.953 24.6804C254.537 24.6804 255.585 23.9844 256.097 22.5924H259.049C258.665 23.9364 257.945 25.0084 256.889 25.8084C255.833 26.5924 254.521 26.9844 252.953 26.9844C251.689 26.9844 250.569 26.7044 249.593 26.1444C248.617 25.5684 247.849 24.7684 247.289 23.7444C246.745 22.7044 246.473 21.5044 246.473 20.1444ZM264.968 15.7764V23.0964C264.968 23.5924 265.08 23.9524 265.304 24.1764C265.544 24.3844 265.944 24.4884 266.504 24.4884H268.184V26.7684H266.024C264.792 26.7684 263.848 26.4804 263.192 25.9044C262.536 25.3284 262.208 24.3924 262.208 23.0964V15.7764H260.648V13.5444H262.208V10.2564H264.968V13.5444H268.184V15.7764H264.968ZM275.506 26.9844C274.466 26.9844 273.53 26.8004 272.698 26.4324C271.882 26.0484 271.234 25.5364 270.754 24.8964C270.274 24.2404 270.018 23.5124 269.986 22.7124H272.818C272.866 23.2724 273.13 23.7444 273.61 24.1284C274.106 24.4964 274.722 24.6804 275.458 24.6804C276.226 24.6804 276.818 24.5364 277.234 24.2484C277.666 23.9444 277.882 23.5604 277.882 23.0964C277.882 22.6004 277.642 22.2324 277.162 21.9924C276.698 21.7524 275.954 21.4884 274.93 21.2004C273.938 20.9284 273.13 20.6644 272.506 20.4084C271.882 20.1524 271.338 19.7604 270.874 19.2324C270.426 18.7044 270.202 18.0084 270.202 17.1444C270.202 16.4404 270.41 15.8004 270.826 15.2244C271.242 14.6324 271.834 14.1684 272.602 13.8324C273.386 13.4964 274.282 13.3284 275.29 13.3284C276.794 13.3284 278.002 13.7124 278.914 14.4804C279.842 15.2324 280.338 16.2644 280.402 17.5764H277.666C277.618 16.9844 277.378 16.5124 276.946 16.1604C276.514 15.8084 275.93 15.6324 275.194 15.6324C274.474 15.6324 273.922 15.7684 273.538 16.0404C273.154 16.3124 272.962 16.6724 272.962 17.1204C272.962 17.4724 273.09 17.7684 273.346 18.0084C273.602 18.2484 273.914 18.4404 274.282 18.5844C274.65 18.7124 275.194 18.8804 275.914 19.0884C276.874 19.3444 277.658 19.6084 278.266 19.8804C278.89 20.1364 279.426 20.5204 279.874 21.0324C280.322 21.5444 280.554 22.2244 280.57 23.0724C280.57 23.8244 280.362 24.4964 279.946 25.0884C279.53 25.6804 278.938 26.1444 278.17 26.4804C277.418 26.8164 276.53 26.9844 275.506 26.9844Z" fill="#EEECEA"/>
</svg>
