<svg width="16" height="16" viewBox="0 0 16 16" fill="none" xmlns="http://www.w3.org/2000/svg">
<path d="M15.95 4.7002C15.99 5.5602 16 5.83 16 8C16 10.17 15.99 10.4498 15.95 11.2998V4.7002ZM15.95 4.7002C15.82 1.8002 14.21 0.179805 11.3 0.0498047L15.95 4.7002ZM11.2538 0.9908C10.4022 0.950248 10.1431 0.939941 8 0.939941C5.85721 0.939941 5.59792 0.950245 4.74662 0.990782C3.5942 1.04395 2.6576 1.34522 1.99981 2.00447C1.34228 2.66345 1.04374 3.5996 0.990556 4.74624C0.95 5.59791 0.939941 5.85702 0.939941 8C0.939941 10.1428 0.949998 10.402 0.990543 11.2535C1.04366 12.3946 1.33939 13.3306 1.99524 13.991C2.65162 14.6519 3.58837 14.956 4.74624 15.0092C5.59784 15.0498 5.8569 15.0601 8 15.0601C10.1431 15.0601 10.4022 15.0498 11.2538 15.0092C12.4072 14.9559 13.3433 14.6516 14.0006 13.9914C14.6575 13.3315 14.9562 12.3959 15.0094 11.2538C15.05 10.4021 15.0601 10.143 15.0601 8C15.0601 5.85705 15.05 5.59792 15.0094 4.74628L11.2538 0.9908ZM11.2538 0.9908C12.4072 1.04407 13.3433 1.34838 14.0006 2.00863C14.6575 2.66849 14.9562 3.60407 15.0094 4.74624L11.2538 0.9908ZM4.72227 0.549307L4.72318 0.549265C5.5717 0.509799 5.83277 0.5 8 0.5C10.1674 0.5 10.4383 0.509804 11.2765 0.549253L11.2777 0.549307C12.6453 0.610402 13.6429 1.01755 14.3136 1.68949C14.9845 2.36158 15.3893 3.35947 15.4505 4.72259L15.4505 4.72343C15.49 5.57201 15.5 5.83289 15.5 8C15.5 10.1673 15.49 10.438 15.4505 11.2763L15.4504 11.2775C15.3894 12.6451 14.9823 13.6428 14.3105 14.3137C13.6385 14.9847 12.6407 15.3896 11.2777 15.4507L11.2765 15.4507C10.4383 15.4902 10.1674 15.5 8 15.5C5.83277 15.5 5.5717 15.4902 4.72318 15.4507L4.72227 15.4507C3.35466 15.3896 2.35713 14.9825 1.68636 14.3105C1.01545 13.6384 0.610652 12.6405 0.549548 11.2774L0.549496 11.2763C0.510045 10.438 0.5 10.1673 0.5 8C0.5 5.83289 0.51004 5.57201 0.54951 4.72343L0.549551 4.72251C0.610684 3.35407 1.01565 2.35657 1.68608 1.68603C2.35651 1.0155 3.35387 0.610438 4.72227 0.549307ZM4.39001 8C4.39001 6.00616 6.00612 4.39014 8 4.39014C9.99388 4.39014 11.61 6.00616 11.61 8C11.61 9.99384 9.99388 11.6099 8 11.6099C6.00612 11.6099 4.39001 9.99384 4.39001 8ZM4.82996 8C4.82996 9.74617 6.25389 11.1699 8 11.1699C9.74611 11.1699 11.17 9.74617 11.17 8C11.17 6.25383 9.74611 4.83008 8 4.83008C6.25389 4.83008 4.82996 6.25383 4.82996 8ZM11.8101 3.72998C11.8101 3.47612 12.0162 3.27002 12.27 3.27002C12.5239 3.27002 12.73 3.47612 12.73 3.72998C12.73 3.98384 12.5239 4.18994 12.27 4.18994C12.0162 4.18994 11.8101 3.98384 11.8101 3.72998Z" fill="#212121" stroke="#212121"/>
</svg>
