<svg width="29" height="29" viewBox="0 0 29 29" fill="none" xmlns="http://www.w3.org/2000/svg">
<path d="M19.026 5.448H9.97391C7.47425 5.448 5.44788 7.47437 5.44788 9.97403V19.0261C5.44788 21.5258 7.47425 23.5521 9.97391 23.5521H19.026C21.5256 23.5521 23.552 21.5258 23.552 19.0261V9.97403C23.552 7.47437 21.5256 5.448 19.026 5.448Z" stroke="black" stroke-width="2" stroke-linecap="round" stroke-linejoin="round"/>
<path d="M14.5 17.8945C16.3747 17.8945 17.8945 16.3747 17.8945 14.5C17.8945 12.6253 16.3747 11.1055 14.5 11.1055C12.6253 11.1055 11.1055 12.6253 11.1055 14.5C11.1055 16.3747 12.6253 17.8945 14.5 17.8945Z" stroke="black" stroke-width="2" stroke-linecap="round" stroke-linejoin="round"/>
<path d="M19.5918 9.4082V9.4092" stroke="black" stroke-width="2" stroke-linecap="round" stroke-linejoin="round"/>
</svg>
