<svg width="18" height="18" viewBox="0 0 18 18" fill="none" xmlns="http://www.w3.org/2000/svg">
<path d="M4.0217 1.93529V1.93531C4.28759 1.93715 4.55051 1.99134 4.79545 2.0948C5.0404 2.19825 5.26257 2.34894 5.44928 2.53826C5.63598 2.72758 5.78357 2.95181 5.88361 3.19817C5.98343 3.44397 6.03396 3.70697 6.03235 3.97224M4.0217 1.93529L6.03234 3.97407C6.03235 3.97346 6.03235 3.97285 6.03235 3.97224M4.0217 1.93529H4.01824H3.97059C3.43079 1.93529 2.91311 2.14973 2.53142 2.53142C2.14973 2.91311 1.93529 3.43079 1.93529 3.97059C1.93529 4.51038 2.14973 5.02807 2.53142 5.40976C2.91166 5.79 3.42686 6.00425 3.96444 6.00587M4.0217 1.93529L3.96444 6.00587M6.03235 3.97224V4.01824V4.03024L6.03221 4.03024C6.02582 4.29615 5.96711 4.5582 5.85941 4.80141C5.75172 5.04462 5.59716 5.26423 5.40456 5.44769C5.21196 5.63114 4.9851 5.77485 4.73695 5.8706C4.4907 5.96562 4.22828 6.01156 3.96444 6.00587M6.03235 3.97224L3.96444 6.00587M5.79412 6.88235V6.38235H5.29412H2.64706H2.14706V6.88235V15.3529V15.8529H2.64706H5.29412H5.79412V15.3529V6.88235ZM15.8529 10.2091V10.2071C15.8529 8.82234 15.4087 7.79578 14.6829 7.11838C13.9684 6.45143 13.0347 6.17314 12.1359 6.17061C11.5259 6.14225 10.9189 6.2732 10.3748 6.55066C10.1975 6.64104 10.0289 6.74593 9.87059 6.86394V6.38235H9.37059H6.88235H6.38235V6.88235V15.3529V15.8529H6.88235H9.52941H10.0294V15.3529V10.8476V10.827L10.0277 10.8063C10.0003 10.4762 10.1043 10.1485 10.3171 9.89462C10.5253 9.64616 10.8212 9.4879 11.1429 9.45235H11.2182C11.5312 9.45235 11.7458 9.54705 11.8906 9.71284C12.0444 9.88879 12.1847 10.2191 12.1847 10.8159V15.3529V15.8529H12.6847H15.3318H15.8297L15.8318 15.355L15.8529 10.2091ZM17.5 1.32353V16.6765C17.5 16.8949 17.4132 17.1044 17.2588 17.2588C17.1044 17.4132 16.8949 17.5 16.6765 17.5H1.32353C1.10512 17.5 0.895647 17.4132 0.741206 17.2588C0.586765 17.1044 0.5 16.8949 0.5 16.6765V1.32353C0.5 1.10512 0.586764 0.895648 0.741206 0.741206C0.895648 0.586764 1.10512 0.5 1.32353 0.5H16.6765C16.8949 0.5 17.1044 0.586765 17.2588 0.741206C17.4132 0.895647 17.5 1.10512 17.5 1.32353Z" fill="#212121" stroke="#212121"/>
</svg>
