<svg width="29" height="29" viewBox="0 0 29 29" fill="none" xmlns="http://www.w3.org/2000/svg">
<path d="M21.2891 5.448H7.71096C6.46112 5.448 5.44794 6.46119 5.44794 7.71102V21.2891C5.44794 22.539 6.46112 23.5521 7.71096 23.5521H21.2891C22.5389 23.5521 23.5521 22.539 23.5521 21.2891V7.71102C23.5521 6.46119 22.5389 5.448 21.2891 5.448Z" stroke="black" stroke-width="2" stroke-linecap="round" stroke-linejoin="round"/>
<path d="M9.97394 13.3684V19.026" stroke="black" stroke-width="2" stroke-linecap="round" stroke-linejoin="round"/>
<path d="M9.97394 9.97388V9.98519" stroke="black" stroke-width="2" stroke-linecap="round" stroke-linejoin="round"/>
<path d="M14.5 19.026V13.3684" stroke="black" stroke-width="2" stroke-linecap="round" stroke-linejoin="round"/>
<path d="M19.026 19.026V15.6314C19.026 15.0312 18.7876 14.4556 18.3632 14.0312C17.9388 13.6068 17.3632 13.3684 16.763 13.3684C16.1628 13.3684 15.5872 13.6068 15.1628 14.0312C14.7384 14.4556 14.5 15.0312 14.5 15.6314" stroke="black" stroke-width="2" stroke-linecap="round" stroke-linejoin="round"/>
</svg>
