<svg width="45" height="46" viewBox="0 0 45 46" fill="none" xmlns="http://www.w3.org/2000/svg">
<path fill-rule="evenodd" clip-rule="evenodd" d="M41.7622 2.09103C40.5432 0.825538 38.8902 0.114624 37.1667 0.114624C35.4431 0.114624 33.7901 0.825538 32.5712 2.09103L28.9312 5.87121L11.8015 23.6606C11.524 23.9486 11.3271 24.3095 11.2317 24.7046L9.065 33.7051C8.97405 34.0821 8.97872 34.4773 9.07856 34.8519C9.1784 35.2266 9.36999 35.568 9.63467 35.8428C9.89935 36.1177 10.2281 36.3167 10.5888 36.4204C10.9496 36.524 11.3301 36.5289 11.6932 36.4344L20.3598 34.1843C20.7403 34.0852 21.0878 33.8807 21.3652 33.5926L38.3713 15.9337L42.1348 12.023C43.3534 10.7571 44.0379 9.04047 44.0379 7.25053C44.0379 5.46058 43.3534 3.74392 42.1348 2.47805L41.7622 2.09103ZM35.6348 5.27268C36.0411 4.85085 36.5921 4.61388 37.1667 4.61388C37.7412 4.61388 38.2922 4.85085 38.6985 5.27268L39.0712 5.6597C39.4773 6.08166 39.7055 6.65388 39.7055 7.25053C39.7055 7.84718 39.4773 8.4194 39.0712 8.84136L36.8677 11.1297L33.4985 7.49129L35.6348 5.27268ZM30.4348 10.6729L33.804 14.3114L18.724 29.9699L14.1437 31.1602L15.2898 26.4012L30.4348 10.6729ZM4.66666 14.0009C4.66666 13.4041 4.89494 12.8318 5.30126 12.4098C5.70759 11.9878 6.25869 11.7507 6.83333 11.7507H17.6667C18.2413 11.7507 18.7924 11.5137 19.1987 11.0917C19.6051 10.6697 19.8333 10.0974 19.8333 9.50064C19.8333 8.90387 19.6051 8.33155 19.1987 7.90957C18.7924 7.48759 18.2413 7.25053 17.6667 7.25053H6.83333C5.10942 7.25053 3.45612 7.96172 2.23713 9.22765C1.01815 10.4936 0.333328 12.2106 0.333328 14.0009V38.7521C0.333328 40.5424 1.01815 42.2593 2.23713 43.5253C3.45612 44.7912 5.10942 45.5024 6.83333 45.5024H30.6667C32.3906 45.5024 34.0439 44.7912 35.2629 43.5253C36.4818 42.2593 37.1667 40.5424 37.1667 38.7521V27.5015C37.1667 26.9047 36.9384 26.3324 36.5321 25.9104C36.1257 25.4885 35.5746 25.2514 35 25.2514C34.4254 25.2514 33.8743 25.4885 33.4679 25.9104C33.0616 26.3324 32.8333 26.9047 32.8333 27.5015V38.7521C32.8333 39.3488 32.6051 39.9212 32.1987 40.3431C31.7924 40.7651 31.2413 41.0022 30.6667 41.0022H6.83333C6.25869 41.0022 5.70759 40.7651 5.30126 40.3431C4.89494 39.9212 4.66666 39.3488 4.66666 38.7521V14.0009Z" fill="#EEECEA"/>
</svg>
