<svg width="42" height="39" viewBox="0 0 42 39" fill="none" xmlns="http://www.w3.org/2000/svg">
<rect x="1" y="10" width="39" height="28" stroke="#212121" stroke-width="2"/>
<rect x="7" y="14" width="29" height="20" stroke="#212121" stroke-width="2"/>
<path d="M11 21.8109C11.1429 20.0705 13.8286 16.6768 23.4286 17.0249C35.4286 17.46 20.4286 30.0778 14.4286 30.9479C8.42857 31.8181 14 21.3758 32 29.6427" stroke="#212121" stroke-width="2"/>
<path d="M4 19V26" stroke="#212121" stroke-width="2"/>
<path d="M4 27V29" stroke="#212121" stroke-width="2"/>
<path d="M36.5806 1.41421L40.0716 4.90527L22.3446 22.6323L17.0535 24.4324L18.8535 19.1413L36.5806 1.41421Z" fill="white" stroke="#212121" stroke-width="2"/>
<path d="M32.5951 3.98535L37.5004 8.89063" stroke="#212121" stroke-width="2"/>
<path d="M18.6459 17.9346L23.5511 22.8398" stroke="#212121" stroke-width="2"/>
<path d="M30.6024 5.97815L35.5077 10.8834" stroke="#212121" stroke-width="2"/>
</svg>
