<svg width="66" height="47" viewBox="0 0 66 47" fill="none" xmlns="http://www.w3.org/2000/svg">
<path d="M22.5455 23.9644C25.0909 26.5652 26.3636 29.7233 26.3636 33.4387C26.3636 37.1542 25.0909 40.3742 22.5455 43.0988C20 45.6996 16.9091 47 13.2727 47C9.63636 47 6.48485 45.6996 3.81818 43.0988C1.27273 40.3742 0 37.1542 0 33.4387C0 27.3702 2.60606 20.9921 7.81818 14.3043C13.1515 7.6166 20.6667 2.84849 30.3636 0L32 3.90118C26.5455 5.75889 21.8788 8.11198 18 10.9605C14.2424 13.6851 11.8182 15.9763 10.7273 17.834L9.09091 20.8063C10.1818 20.3109 11.5758 20.0632 13.2727 20.0632C16.9091 20.0632 20 21.3636 22.5455 23.9644ZM56.5454 23.9644C59.0909 26.5652 60.3636 29.7233 60.3636 33.4387C60.3636 37.1542 59.0909 40.3742 56.5454 43.0988C54 45.6996 50.9091 47 47.2727 47C43.6364 47 40.4848 45.6996 37.8182 43.0988C35.2727 40.3742 34 37.1542 34 33.4387C34 27.3702 36.6061 20.9921 41.8182 14.3043C47.1515 7.6166 54.6667 2.84849 64.3636 0L66 3.90118C60.5455 5.75889 55.8788 8.11198 52 10.9605C48.2424 13.6851 45.8182 15.9763 44.7273 17.834L43.0909 20.8063C44.1818 20.3109 45.5758 20.0632 47.2727 20.0632C50.9091 20.0632 54 21.3636 56.5454 23.9644Z" fill="#EDEBE9"/>
</svg>
