<svg width="112" height="27" viewBox="0 0 112 27" fill="none" xmlns="http://www.w3.org/2000/svg">
<path d="M9.30008 20L6.10008 14.44H4.36008V20H2.08008V6.1H6.88008C7.94675 6.1 8.84675 6.28667 9.58008 6.66C10.3267 7.03333 10.8801 7.53333 11.2401 8.16C11.6134 8.78667 11.8001 9.48667 11.8001 10.26C11.8001 11.1667 11.5334 11.9933 11.0001 12.74C10.4801 13.4733 9.67341 13.9733 8.58008 14.24L12.0201 20H9.30008ZM4.36008 12.62H6.88008C7.73341 12.62 8.37341 12.4067 8.80008 11.98C9.24008 11.5533 9.46008 10.98 9.46008 10.26C9.46008 9.54 9.24675 8.98 8.82008 8.58C8.39341 8.16667 7.74675 7.96 6.88008 7.96H4.36008V12.62ZM24.8168 14.22C24.8168 14.6333 24.7901 15.0067 24.7368 15.34H16.3168C16.3835 16.22 16.7101 16.9267 17.2968 17.46C17.8835 17.9933 18.6035 18.26 19.4568 18.26C20.6835 18.26 21.5501 17.7467 22.0568 16.72H24.5168C24.1835 17.7333 23.5768 18.5667 22.6968 19.22C21.8301 19.86 20.7501 20.18 19.4568 20.18C18.4035 20.18 17.4568 19.9467 16.6168 19.48C15.7901 19 15.1368 18.3333 14.6568 17.48C14.1901 16.6133 13.9568 15.6133 13.9568 14.48C13.9568 13.3467 14.1835 12.3533 14.6368 11.5C15.1035 10.6333 15.7501 9.96667 16.5768 9.5C17.4168 9.03333 18.3768 8.8 19.4568 8.8C20.4968 8.8 21.4235 9.02667 22.2368 9.48C23.0501 9.93333 23.6835 10.5733 24.1368 11.4C24.5901 12.2133 24.8168 13.1533 24.8168 14.22ZM22.4368 13.5C22.4235 12.66 22.1235 11.9867 21.5368 11.48C20.9501 10.9733 20.2235 10.72 19.3568 10.72C18.5701 10.72 17.8968 10.9733 17.3368 11.48C16.7768 11.9733 16.4435 12.6467 16.3368 13.5H22.4368ZM26.3005 14.44C26.3005 13.3333 26.5272 12.3533 26.9805 11.5C27.4472 10.6467 28.0739 9.98667 28.8605 9.52C29.6605 9.04 30.5405 8.8 31.5005 8.8C32.3672 8.8 33.1205 8.97333 33.7605 9.32C34.4139 9.65333 34.9339 10.0733 35.3205 10.58V8.98H37.6205V20H35.3205V18.36C34.9339 18.88 34.4072 19.3133 33.7405 19.66C33.0739 20.0067 32.3139 20.18 31.4605 20.18C30.5139 20.18 29.6472 19.94 28.8605 19.46C28.0739 18.9667 27.4472 18.2867 26.9805 17.42C26.5272 16.54 26.3005 15.5467 26.3005 14.44ZM35.3205 14.48C35.3205 13.72 35.1605 13.06 34.8405 12.5C34.5339 11.94 34.1272 11.5133 33.6205 11.22C33.1139 10.9267 32.5672 10.78 31.9805 10.78C31.3939 10.78 30.8472 10.9267 30.3405 11.22C29.8339 11.5 29.4205 11.92 29.1005 12.48C28.7939 13.0267 28.6405 13.68 28.6405 14.44C28.6405 15.2 28.7939 15.8667 29.1005 16.44C29.4205 17.0133 29.8339 17.4533 30.3405 17.76C30.8605 18.0533 31.4072 18.2 31.9805 18.2C32.5672 18.2 33.1139 18.0533 33.6205 17.76C34.1272 17.4667 34.5339 17.04 34.8405 16.48C35.1605 15.9067 35.3205 15.24 35.3205 14.48ZM39.8552 14.44C39.8552 13.3333 40.0819 12.3533 40.5352 11.5C41.0019 10.6467 41.6286 9.98667 42.4152 9.52C43.2152 9.04 44.1019 8.8 45.0752 8.8C45.7952 8.8 46.5019 8.96 47.1952 9.28C47.9019 9.58667 48.4619 10 48.8752 10.52V5.2H51.1752V20H48.8752V18.34C48.5019 18.8733 47.9819 19.3133 47.3152 19.66C46.6619 20.0067 45.9086 20.18 45.0552 20.18C44.0952 20.18 43.2152 19.94 42.4152 19.46C41.6286 18.9667 41.0019 18.2867 40.5352 17.42C40.0819 16.54 39.8552 15.5467 39.8552 14.44ZM48.8752 14.48C48.8752 13.72 48.7152 13.06 48.3952 12.5C48.0886 11.94 47.6819 11.5133 47.1752 11.22C46.6686 10.9267 46.1219 10.78 45.5352 10.78C44.9486 10.78 44.4019 10.9267 43.8952 11.22C43.3886 11.5 42.9752 11.92 42.6552 12.48C42.3486 13.0267 42.1952 13.68 42.1952 14.44C42.1952 15.2 42.3486 15.8667 42.6552 16.44C42.9752 17.0133 43.3886 17.4533 43.8952 17.76C44.4152 18.0533 44.9619 18.2 45.5352 18.2C46.1219 18.2 46.6686 18.0533 47.1752 17.76C47.6819 17.4667 48.0886 17.04 48.3952 16.48C48.7152 15.9067 48.8752 15.24 48.8752 14.48ZM72.7052 8.8C73.5719 8.8 74.3452 8.98 75.0252 9.34C75.7186 9.7 76.2586 10.2333 76.6452 10.94C77.0452 11.6467 77.2452 12.5 77.2452 13.5V20H74.9852V13.84C74.9852 12.8533 74.7386 12.1 74.2452 11.58C73.7519 11.0467 73.0786 10.78 72.2252 10.78C71.3719 10.78 70.6919 11.0467 70.1852 11.58C69.6919 12.1 69.4452 12.8533 69.4452 13.84V20H67.1852V13.84C67.1852 12.8533 66.9386 12.1 66.4452 11.58C65.9519 11.0467 65.2786 10.78 64.4252 10.78C63.5719 10.78 62.8919 11.0467 62.3852 11.58C61.8919 12.1 61.6452 12.8533 61.6452 13.84V20H59.3652V8.98H61.6452V10.24C62.0186 9.78667 62.4919 9.43333 63.0652 9.18C63.6386 8.92667 64.2519 8.8 64.9052 8.8C65.7852 8.8 66.5719 8.98667 67.2652 9.36C67.9586 9.73333 68.4919 10.2733 68.8652 10.98C69.1986 10.3133 69.7186 9.78667 70.4252 9.4C71.1319 9 71.8919 8.8 72.7052 8.8ZM84.9265 20.18C83.8865 20.18 82.9465 19.9467 82.1065 19.48C81.2665 19 80.6065 18.3333 80.1265 17.48C79.6465 16.6133 79.4065 15.6133 79.4065 14.48C79.4065 13.36 79.6532 12.3667 80.1465 11.5C80.6398 10.6333 81.3132 9.96667 82.1665 9.5C83.0198 9.03333 83.9732 8.8 85.0265 8.8C86.0798 8.8 87.0332 9.03333 87.8865 9.5C88.7398 9.96667 89.4132 10.6333 89.9065 11.5C90.3998 12.3667 90.6465 13.36 90.6465 14.48C90.6465 15.6 90.3932 16.5933 89.8865 17.46C89.3798 18.3267 88.6865 19 87.8065 19.48C86.9398 19.9467 85.9798 20.18 84.9265 20.18ZM84.9265 18.2C85.5132 18.2 86.0598 18.06 86.5665 17.78C87.0865 17.5 87.5065 17.08 87.8265 16.52C88.1465 15.96 88.3065 15.28 88.3065 14.48C88.3065 13.68 88.1532 13.0067 87.8465 12.46C87.5398 11.9 87.1332 11.48 86.6265 11.2C86.1198 10.92 85.5732 10.78 84.9865 10.78C84.3998 10.78 83.8532 10.92 83.3465 11.2C82.8532 11.48 82.4598 11.9 82.1665 12.46C81.8732 13.0067 81.7265 13.68 81.7265 14.48C81.7265 15.6667 82.0265 16.5867 82.6265 17.24C83.2398 17.88 84.0065 18.2 84.9265 18.2ZM95.1804 10.58C95.5137 10.02 95.9537 9.58667 96.5004 9.28C97.0604 8.96 97.7204 8.8 98.4804 8.8V11.16H97.9004C97.0071 11.16 96.3271 11.3867 95.8604 11.84C95.4071 12.2933 95.1804 13.08 95.1804 14.2V20H92.9004V8.98H95.1804V10.58ZM110.676 14.22C110.676 14.6333 110.65 15.0067 110.596 15.34H102.176C102.243 16.22 102.57 16.9267 103.156 17.46C103.743 17.9933 104.463 18.26 105.316 18.26C106.543 18.26 107.41 17.7467 107.916 16.72H110.376C110.043 17.7333 109.436 18.5667 108.556 19.22C107.69 19.86 106.61 20.18 105.316 20.18C104.263 20.18 103.316 19.9467 102.476 19.48C101.65 19 100.996 18.3333 100.516 17.48C100.05 16.6133 99.8162 15.6133 99.8162 14.48C99.8162 13.3467 100.043 12.3533 100.496 11.5C100.963 10.6333 101.61 9.96667 102.436 9.5C103.276 9.03333 104.236 8.8 105.316 8.8C106.356 8.8 107.283 9.02667 108.096 9.48C108.91 9.93333 109.543 10.5733 109.996 11.4C110.45 12.2133 110.676 13.1533 110.676 14.22ZM108.296 13.5C108.283 12.66 107.983 11.9867 107.396 11.48C106.81 10.9733 106.083 10.72 105.216 10.72C104.43 10.72 103.756 10.9733 103.196 11.48C102.636 11.9733 102.303 12.6467 102.196 13.5H108.296Z" fill="#212121"/>
<path d="M0 26H111" stroke="#212121" stroke-opacity="0.7" stroke-width="2" stroke-dasharray="3 3"/>
</svg>
