<svg width="18" height="15" viewBox="0 0 18 15" fill="none" xmlns="http://www.w3.org/2000/svg">
<mask id="path-1-inside-1_0_75" fill="white">
<path d="M7.06305 9.886L6.7653 14.074C7.19131 14.074 7.37581 13.891 7.59707 13.6712L9.59436 11.7625L13.733 14.7932C14.492 15.2162 15.0267 14.9935 15.2315 14.095L17.9481 1.36605L17.9488 1.3653C18.1896 0.243303 17.5431 -0.195445 16.8035 0.0798037L0.835653 6.19302C-0.254123 6.61602 -0.237622 7.22352 0.650399 7.49877L4.73275 8.76851L14.2152 2.83529C14.6615 2.53979 15.0672 2.70329 14.7335 2.99879L7.06305 9.886Z"/>
</mask>
<path d="M7.06305 9.886L6.7653 14.074C7.19131 14.074 7.37581 13.891 7.59707 13.6712L9.59436 11.7625L13.733 14.7932C14.492 15.2162 15.0267 14.9935 15.2315 14.095L17.9481 1.36605L17.9488 1.3653C18.1896 0.243303 17.5431 -0.195445 16.8035 0.0798037L0.835653 6.19302C-0.254123 6.61602 -0.237622 7.22352 0.650399 7.49877L4.73275 8.76851L14.2152 2.83529C14.6615 2.53979 15.0672 2.70329 14.7335 2.99879L7.06305 9.886Z" fill="#212121"/>
<path d="M7.06305 9.886L-7.18969 -5.98757L-13.6051 -0.227233L-14.2166 8.37306L7.06305 9.886ZM6.7653 14.074L-14.5143 12.561L-16.1386 35.4073H6.7653V14.074ZM7.59707 13.6712L-7.14208 -1.75176L-7.29055 -1.60987L-7.43626 -1.46515L7.59707 13.6712ZM9.59436 11.7625L22.1987 -5.44921L7.77759 -16.0099L-5.14479 -3.6605L9.59436 11.7625ZM13.733 14.7932L1.12867 32.0049L2.19418 32.7852L3.3478 33.4281L13.733 14.7932ZM15.2315 14.095L36.0316 18.835L36.0643 18.6915L36.095 18.5476L15.2315 14.095ZM17.9481 1.36605L2.85832 -13.7141L-1.59927 -9.25368L-2.91543 -3.08657L17.9481 1.36605ZM17.9488 1.3653L33.0386 16.4454L37.487 11.9941L38.8073 5.84109L17.9488 1.3653ZM16.8035 0.0798037L9.362 -19.9136L9.26887 -19.8789L9.17606 -19.8434L16.8035 0.0798037ZM0.835653 6.19302L-6.79183 -13.7301L-6.83785 -13.7125L-6.88379 -13.6947L0.835653 6.19302ZM0.650399 7.49877L6.98636 -12.872L6.97637 -12.8751L6.96638 -12.8782L0.650399 7.49877ZM4.73275 8.76851L-1.60322 29.1392L7.74728 32.0476L16.0485 26.8534L4.73275 8.76851ZM14.2152 2.83529L25.531 20.9202L25.7641 20.7744L25.9933 20.6226L14.2152 2.83529ZM14.7335 2.99879L0.591839 -12.9738L0.536118 -12.9245L0.480743 -12.8748L14.7335 2.99879ZM-14.2166 8.37306L-14.5143 12.561L28.0449 15.5869L28.3427 11.3989L-14.2166 8.37306ZM6.7653 35.4073C10.3716 35.4073 14.2568 34.5442 17.911 32.4381C19.5181 31.5118 20.7102 30.5552 21.4609 29.9C21.8323 29.5759 22.1262 29.2982 22.3084 29.1229C22.477 28.9606 22.6236 28.8144 22.6304 28.8076L-7.43626 -1.46515C-7.89293 -1.0116 -6.07956 -2.98081 -3.39506 -4.52807C0.00501286 -6.48775 3.58501 -7.25935 6.7653 -7.25935V35.4073ZM22.3362 29.0942L24.3335 27.1855L-5.14479 -3.6605L-7.14208 -1.75176L22.3362 29.0942ZM-3.00993 28.9742L1.12867 32.0049L26.3373 -2.41848L22.1987 -5.44921L-3.00993 28.9742ZM3.3478 33.4281C6.22328 35.0306 14.2243 38.5704 23.4923 34.3724C32.6796 30.211 35.3203 21.956 36.0316 18.835L-5.56857 9.35493C-5.0621 7.13243 -2.79107 -0.561907 5.88786 -4.49309C14.6475 -8.46083 22.0017 -5.02117 24.1181 -3.84167L3.3478 33.4281ZM36.095 18.5476L38.8116 5.81866L-2.91543 -3.08657L-5.63199 9.64237L36.095 18.5476ZM33.0378 16.4462L33.0386 16.4454L2.85907 -13.7149L2.85832 -13.7141L33.0378 16.4462ZM38.8073 5.84109C39.7157 1.60793 40.2553 -7.74524 32.5362 -15.1734C24.5617 -22.8472 14.686 -21.8951 9.362 -19.9136L24.2451 20.0732C19.6606 21.7795 10.4779 22.8133 2.95139 15.5705C-4.3198 8.57347 -3.57731 0.000670035 -2.90972 -3.11049L38.8073 5.84109ZM9.17606 -19.8434L-6.79183 -13.7301L8.46313 26.1162L24.431 20.003L9.17606 -19.8434ZM-6.88379 -13.6947C-8.56913 -13.0405 -11.211 -11.809 -13.8352 -9.51018C-16.3396 -7.31631 -20.583 -2.52935 -21.2495 5.02691C-21.9778 13.2843 -18.0103 19.4632 -14.4172 22.8222C-11.1356 25.89 -7.67749 27.2521 -5.66558 27.8757L6.96638 -12.8782C8.53428 -12.3922 11.6573 -11.2092 14.7201 -8.34601C18.0944 -5.19157 21.9594 0.757484 21.2522 8.77569C20.6068 16.0928 16.5081 20.6314 14.2793 22.5838C11.9308 24.6411 9.69555 25.6381 8.55509 26.0807L-6.88379 -13.6947ZM-5.68556 27.8695L-1.60322 29.1392L11.0687 -11.6022L6.98636 -12.872L-5.68556 27.8695ZM16.0485 26.8534L25.531 20.9202L2.89943 -15.2496L-6.58305 -9.3164L16.0485 26.8534ZM25.9933 20.6226C24.1581 21.8378 21.8947 22.9016 19.2358 23.5028C16.9786 24.0131 12.6663 24.5818 7.64982 22.8066C5.00851 21.8719 1.35427 19.9708 -1.70776 16.211C-5.00968 12.1566 -6.64937 7.09526 -6.46286 2.02309C-6.13809 -6.8089 -0.70222 -11.8281 0.591839 -12.9738L28.8751 18.9714C30.3361 17.678 35.8464 12.5275 36.175 3.59096C36.6251 -8.65036 27.6898 -15.3611 21.8839 -17.4157C16.7519 -19.2319 12.2754 -18.6671 9.827 -18.1135C6.97693 -17.4692 4.49546 -16.315 2.4371 -14.952L25.9933 20.6226ZM0.480743 -12.8748L-7.18969 -5.98757L21.3158 25.7596L28.9862 18.8724L0.480743 -12.8748Z" fill="#212121" mask="url(#path-1-inside-1_0_75)"/>
</svg>
