<svg width="222" height="68" viewBox="0 0 222 68" fill="none" xmlns="http://www.w3.org/2000/svg">
<path d="M82.0709 57.7275L139.789 57.7275" stroke="#F6F6F6" stroke-width="2" stroke-linecap="round" stroke-linejoin="round"/>
<path d="M130.088 66.0023L139.57 57.6757" stroke="#F6F6F6" stroke-width="2" stroke-linecap="round" stroke-linejoin="round"/>
<path d="M130.088 49.349L139.57 57.6756" stroke="#F6F6F6" stroke-width="2" stroke-linecap="round" stroke-linejoin="round"/>
<path d="M8.50973 26.7238C7.38973 26.7238 6.38173 26.5318 5.48573 26.1478C4.58973 25.7478 3.88573 25.1878 3.37373 24.4678C2.86173 23.7478 2.60573 22.9078 2.60573 21.9478H5.53373C5.59773 22.6678 5.87773 23.2598 6.37373 23.7238C6.88573 24.1878 7.59773 24.4198 8.50973 24.4198C9.45373 24.4198 10.1897 24.1958 10.7177 23.7478C11.2457 23.2838 11.5097 22.6918 11.5097 21.9718C11.5097 21.4118 11.3417 20.9558 11.0057 20.6038C10.6857 20.2518 10.2777 19.9798 9.78173 19.7878C9.30173 19.5958 8.62973 19.3878 7.76573 19.1638C6.67773 18.8758 5.78973 18.5878 5.10173 18.2998C4.42973 17.9958 3.85373 17.5318 3.37373 16.9078C2.89373 16.2838 2.65373 15.4518 2.65373 14.4118C2.65373 13.4518 2.89373 12.6118 3.37373 11.8918C3.85373 11.1718 4.52573 10.6198 5.38973 10.2358C6.25373 9.85179 7.25373 9.65978 8.38973 9.65978C10.0057 9.65978 11.3257 10.0678 12.3497 10.8838C13.3897 11.6838 13.9657 12.7878 14.0777 14.1958H11.0537C11.0057 13.5878 10.7177 13.0678 10.1897 12.6358C9.66173 12.2038 8.96573 11.9878 8.10173 11.9878C7.31773 11.9878 6.67773 12.1878 6.18173 12.5878C5.68573 12.9878 5.43773 13.5638 5.43773 14.3158C5.43773 14.8278 5.58973 15.2518 5.89373 15.5878C6.21373 15.9078 6.61373 16.1638 7.09373 16.3558C7.57373 16.5478 8.22973 16.7558 9.06173 16.9798C10.1657 17.2838 11.0617 17.5878 11.7497 17.8918C12.4537 18.1958 13.0457 18.6678 13.5257 19.3078C14.0217 19.9318 14.2697 20.7718 14.2697 21.8278C14.2697 22.6758 14.0377 23.4758 13.5737 24.2278C13.1257 24.9798 12.4617 25.5878 11.5817 26.0518C10.7177 26.4998 9.69373 26.7238 8.50973 26.7238ZM29.6181 19.6198C29.6181 20.1158 29.5861 20.5638 29.5221 20.9638H19.4181C19.4981 22.0198 19.8901 22.8678 20.5941 23.5078C21.2981 24.1478 22.1621 24.4678 23.1861 24.4678C24.6581 24.4678 25.6981 23.8518 26.3061 22.6198H29.2581C28.8581 23.8358 28.1301 24.8358 27.0741 25.6198C26.0341 26.3878 24.7381 26.7718 23.1861 26.7718C21.9221 26.7718 20.7861 26.4918 19.7781 25.9318C18.7861 25.3558 18.0021 24.5558 17.4261 23.5318C16.8661 22.4918 16.5861 21.2918 16.5861 19.9318C16.5861 18.5718 16.8581 17.3798 17.4021 16.3558C17.9621 15.3158 18.7381 14.5158 19.7301 13.9558C20.7381 13.3958 21.8901 13.1158 23.1861 13.1158C24.4341 13.1158 25.5461 13.3878 26.5221 13.9318C27.4981 14.4758 28.2581 15.2438 28.8021 16.2358C29.3461 17.2118 29.6181 18.3398 29.6181 19.6198ZM26.7621 18.7558C26.7461 17.7478 26.3861 16.9398 25.6821 16.3318C24.9781 15.7238 24.1061 15.4198 23.0661 15.4198C22.1221 15.4198 21.3141 15.7238 20.6421 16.3318C19.9701 16.9238 19.5701 17.7318 19.4421 18.7558H26.7621ZM44.4306 19.6198C44.4306 20.1158 44.3986 20.5638 44.3346 20.9638H34.2306C34.3106 22.0198 34.7026 22.8678 35.4066 23.5078C36.1106 24.1478 36.9746 24.4678 37.9986 24.4678C39.4706 24.4678 40.5106 23.8518 41.1186 22.6198H44.0706C43.6706 23.8358 42.9426 24.8358 41.8866 25.6198C40.8466 26.3878 39.5506 26.7718 37.9986 26.7718C36.7346 26.7718 35.5986 26.4918 34.5906 25.9318C33.5986 25.3558 32.8146 24.5558 32.2386 23.5318C31.6786 22.4918 31.3986 21.2918 31.3986 19.9318C31.3986 18.5718 31.6706 17.3798 32.2146 16.3558C32.7746 15.3158 33.5506 14.5158 34.5426 13.9558C35.5506 13.3958 36.7026 13.1158 37.9986 13.1158C39.2466 13.1158 40.3586 13.3878 41.3346 13.9318C42.3106 14.4758 43.0706 15.2438 43.6146 16.2358C44.1586 17.2118 44.4306 18.3398 44.4306 19.6198ZM41.5746 18.7558C41.5586 17.7478 41.1986 16.9398 40.4946 16.3318C39.7906 15.7238 38.9186 15.4198 37.8786 15.4198C36.9346 15.4198 36.1266 15.7238 35.4546 16.3318C34.7826 16.9238 34.3826 17.7318 34.2546 18.7558H41.5746ZM56.0695 9.87578V20.5078C56.0695 21.7718 56.3975 22.7238 57.0535 23.3638C57.7255 24.0038 58.6535 24.3238 59.8375 24.3238C61.0375 24.3238 61.9655 24.0038 62.6215 23.3638C63.2935 22.7238 63.6295 21.7718 63.6295 20.5078V9.87578H66.3655V20.4598C66.3655 21.8198 66.0695 22.9718 65.4775 23.9158C64.8855 24.8598 64.0935 25.5638 63.1015 26.0278C62.1095 26.4918 61.0135 26.7238 59.8135 26.7238C58.6135 26.7238 57.5175 26.4918 56.5255 26.0278C55.5495 25.5638 54.7735 24.8598 54.1975 23.9158C53.6215 22.9718 53.3335 21.8198 53.3335 20.4598V9.87578H56.0695ZM72.6638 9.87578V26.5558H69.9278V9.87578H72.6638ZM85.1359 3.89978L78.6079 30.7558H75.9199L82.4239 3.89978H85.1359ZM91.296 9.87578V20.5078C91.296 21.7718 91.624 22.7238 92.28 23.3638C92.952 24.0038 93.88 24.3238 95.064 24.3238C96.264 24.3238 97.192 24.0038 97.848 23.3638C98.52 22.7238 98.856 21.7718 98.856 20.5078V9.87578H101.592V20.4598C101.592 21.8198 101.296 22.9718 100.704 23.9158C100.112 24.8598 99.32 25.5638 98.328 26.0278C97.336 26.4918 96.24 26.7238 95.04 26.7238C93.84 26.7238 92.744 26.4918 91.752 26.0278C90.776 25.5638 90 24.8598 89.424 23.9158C88.848 22.9718 88.56 21.8198 88.56 20.4598V9.87578H91.296ZM112.81 18.2278L117.994 26.5558H114.922L111.154 20.5078L107.626 26.5558H104.578L109.762 18.2278L104.554 9.87578H107.626L111.418 15.9718L114.97 9.87578H118.018L112.81 18.2278ZM138.896 14.8438C138.896 15.6918 138.696 16.4918 138.296 17.2438C137.896 17.9958 137.256 18.6118 136.376 19.0918C135.496 19.5558 134.368 19.7878 132.992 19.7878H129.968V26.5558H127.232V9.87578H132.992C134.272 9.87578 135.352 10.0998 136.232 10.5478C137.128 10.9798 137.792 11.5718 138.224 12.3238C138.672 13.0758 138.896 13.9158 138.896 14.8438ZM132.992 17.5558C134.032 17.5558 134.808 17.3238 135.32 16.8598C135.832 16.3798 136.088 15.7078 136.088 14.8438C136.088 13.0198 135.056 12.1078 132.992 12.1078H129.968V17.5558H132.992ZM144.242 15.2518C144.642 14.5798 145.17 14.0598 145.826 13.6918C146.498 13.3078 147.29 13.1158 148.202 13.1158V15.9478H147.506C146.434 15.9478 145.618 16.2198 145.058 16.7638C144.514 17.3078 144.242 18.2518 144.242 19.5958V26.5558H141.506V13.3318H144.242V15.2518ZM156.453 26.7718C155.205 26.7718 154.077 26.4918 153.069 25.9318C152.061 25.3558 151.269 24.5558 150.693 23.5318C150.117 22.4918 149.829 21.2918 149.829 19.9318C149.829 18.5878 150.125 17.3958 150.717 16.3558C151.309 15.3158 152.117 14.5158 153.141 13.9558C154.165 13.3958 155.309 13.1158 156.573 13.1158C157.837 13.1158 158.981 13.3958 160.005 13.9558C161.029 14.5158 161.837 15.3158 162.429 16.3558C163.021 17.3958 163.317 18.5878 163.317 19.9318C163.317 21.2758 163.013 22.4678 162.405 23.5078C161.797 24.5478 160.965 25.3558 159.909 25.9318C158.869 26.4918 157.717 26.7718 156.453 26.7718ZM156.453 24.3958C157.157 24.3958 157.813 24.2278 158.421 23.8918C159.045 23.5558 159.549 23.0518 159.933 22.3798C160.317 21.7078 160.509 20.8918 160.509 19.9318C160.509 18.9718 160.325 18.1638 159.957 17.5078C159.589 16.8358 159.101 16.3318 158.493 15.9958C157.885 15.6598 157.229 15.4918 156.525 15.4918C155.821 15.4918 155.165 15.6598 154.557 15.9958C153.965 16.3318 153.493 16.8358 153.141 17.5078C152.789 18.1638 152.613 18.9718 152.613 19.9318C152.613 21.3558 152.973 22.4598 153.693 23.2438C154.429 24.0118 155.349 24.3958 156.453 24.3958ZM167.414 11.5798C166.918 11.5798 166.502 11.4118 166.166 11.0758C165.83 10.7398 165.662 10.3238 165.662 9.82779C165.662 9.33179 165.83 8.91579 166.166 8.57979C166.502 8.24379 166.918 8.07579 167.414 8.07579C167.894 8.07579 168.302 8.24379 168.638 8.57979C168.974 8.91579 169.142 9.33179 169.142 9.82779C169.142 10.3238 168.974 10.7398 168.638 11.0758C168.302 11.4118 167.894 11.5798 167.414 11.5798ZM168.758 29.1478C168.758 30.4438 168.43 31.3798 167.774 31.9558C167.134 32.5478 166.198 32.8438 164.966 32.8438H163.55V30.5398H164.486C165.046 30.5398 165.438 30.4278 165.662 30.2038C165.902 29.9958 166.022 29.6438 166.022 29.1478V13.3318H168.758V29.1478ZM184.47 19.6198C184.47 20.1158 184.438 20.5638 184.374 20.9638H174.27C174.35 22.0198 174.742 22.8678 175.446 23.5078C176.15 24.1478 177.014 24.4678 178.038 24.4678C179.51 24.4678 180.55 23.8518 181.158 22.6198H184.11C183.71 23.8358 182.982 24.8358 181.926 25.6198C180.886 26.3878 179.59 26.7718 178.038 26.7718C176.774 26.7718 175.638 26.4918 174.63 25.9318C173.638 25.3558 172.854 24.5558 172.278 23.5318C171.718 22.4918 171.438 21.2918 171.438 19.9318C171.438 18.5718 171.71 17.3798 172.254 16.3558C172.814 15.3158 173.59 14.5158 174.582 13.9558C175.59 13.3958 176.742 13.1158 178.038 13.1158C179.286 13.1158 180.398 13.3878 181.374 13.9318C182.35 14.4758 183.11 15.2438 183.654 16.2358C184.198 17.2118 184.47 18.3398 184.47 19.6198ZM181.614 18.7558C181.598 17.7478 181.238 16.9398 180.534 16.3318C179.83 15.7238 178.958 15.4198 177.918 15.4198C176.974 15.4198 176.166 15.7238 175.494 16.3318C174.822 16.9238 174.422 17.7318 174.294 18.7558H181.614ZM186.25 19.9318C186.25 18.5718 186.522 17.3798 187.066 16.3558C187.626 15.3158 188.394 14.5158 189.37 13.9558C190.346 13.3958 191.466 13.1158 192.73 13.1158C194.33 13.1158 195.65 13.4998 196.69 14.2678C197.746 15.0198 198.458 16.0998 198.826 17.5078H195.874C195.634 16.8518 195.25 16.3398 194.722 15.9718C194.194 15.6038 193.53 15.4198 192.73 15.4198C191.61 15.4198 190.714 15.8198 190.042 16.6198C189.386 17.4038 189.058 18.5078 189.058 19.9318C189.058 21.3558 189.386 22.4678 190.042 23.2678C190.714 24.0678 191.61 24.4678 192.73 24.4678C194.314 24.4678 195.362 23.7718 195.874 22.3798H198.826C198.442 23.7238 197.722 24.7958 196.666 25.5958C195.61 26.3798 194.298 26.7718 192.73 26.7718C191.466 26.7718 190.346 26.4918 189.37 25.9318C188.394 25.3558 187.626 24.5558 187.066 23.5318C186.522 22.4918 186.25 21.2918 186.25 19.9318ZM204.745 15.5638V22.8838C204.745 23.3798 204.857 23.7398 205.081 23.9638C205.321 24.1718 205.721 24.2758 206.281 24.2758H207.961V26.5558H205.801C204.569 26.5558 203.625 26.2678 202.969 25.6918C202.313 25.1158 201.985 24.1798 201.985 22.8838V15.5638H200.425V13.3318H201.985V10.0438H204.745V13.3318H207.961V15.5638H204.745ZM215.282 26.7718C214.242 26.7718 213.306 26.5878 212.474 26.2198C211.658 25.8358 211.01 25.3238 210.53 24.6838C210.05 24.0278 209.794 23.2998 209.762 22.4998H212.594C212.642 23.0598 212.906 23.5318 213.386 23.9158C213.882 24.2838 214.498 24.4678 215.234 24.4678C216.002 24.4678 216.594 24.3238 217.01 24.0358C217.442 23.7318 217.658 23.3478 217.658 22.8838C217.658 22.3878 217.418 22.0198 216.938 21.7798C216.474 21.5398 215.73 21.2758 214.706 20.9878C213.714 20.7158 212.906 20.4518 212.282 20.1958C211.658 19.9398 211.114 19.5478 210.65 19.0198C210.202 18.4918 209.978 17.7958 209.978 16.9318C209.978 16.2278 210.186 15.5878 210.602 15.0118C211.018 14.4198 211.61 13.9558 212.378 13.6198C213.162 13.2838 214.058 13.1158 215.066 13.1158C216.57 13.1158 217.778 13.4998 218.69 14.2678C219.618 15.0198 220.114 16.0518 220.178 17.3638H217.442C217.394 16.7718 217.154 16.2998 216.722 15.9478C216.29 15.5958 215.706 15.4198 214.97 15.4198C214.25 15.4198 213.698 15.5558 213.314 15.8278C212.93 16.0998 212.738 16.4598 212.738 16.9078C212.738 17.2598 212.866 17.5558 213.122 17.7958C213.378 18.0358 213.69 18.2278 214.058 18.3718C214.426 18.4998 214.97 18.6678 215.69 18.8758C216.65 19.1318 217.434 19.3958 218.042 19.6678C218.666 19.9238 219.202 20.3078 219.65 20.8198C220.098 21.3318 220.33 22.0118 220.346 22.8598C220.346 23.6118 220.138 24.2838 219.722 24.8758C219.306 25.4678 218.714 25.9318 217.946 26.2678C217.194 26.6038 216.306 26.7718 215.282 26.7718Z" fill="#EEECEA"/>
</svg>
